<?xml version="1.0" encoding="utf-8"?>
<!-- Generator: Adobe Illustrator 25.4.1, SVG Export Plug-In . SVG Version: 6.00 Build 0)  -->
<svg version="1.1" id="Layer_1" xmlns="http://www.w3.org/2000/svg" xmlns:xlink="http://www.w3.org/1999/xlink" x="0px" y="0px"
	 viewBox="0 0 3840 140" style="enable-background:new 0 0 3840 140;" xml:space="preserve">
<style type="text/css">
	.st0{fill:#FFE000;}
	.st1{fill:#408EDB;}
	.st2{fill:#7DC1F9;}
	.st3{fill:#418CBF;}
	.st4{fill:#CC404E;}
	.st5{fill:#CCA442;}
	.st6{fill:#2A557F;}
	.st7{fill:#E5A353;}
	.st8{fill:#225B14;}
	.st9{fill:#6023B7;}
	.st10{fill:#F79431;}
	.st11{fill:#31BDF4;}
	.st12{fill:#31D0F4;}
	.st13{fill:#CE413A;}
	.st14{fill:#5FA340;}
	.st15{fill:#FFC431;}
	.st16{fill:#AA1A1A;}
	.st17{fill:none;stroke:#0F6608;stroke-width:12;stroke-linecap:round;stroke-miterlimit:10;}
	.st18{fill:#D339C1;}
	.st19{fill:#B1D13B;}
	.st20{fill:#16A374;}
	.st21{fill:#EAD900;}
	.st22{fill:#4F4F4F;}
	.st23{fill:#D3849A;}
	.st24{fill:#58A346;}
	.st25{fill:#853ADD;}
	.st26{fill:#683B2D;}
	.st27{fill:#BC9C6C;}
	.st28{fill:#7416D8;}
	.st29{fill:#1E648E;}
	.st30{fill:#E0CD1E;}
	.st31{fill:#DD1F5A;}
	.st32{fill:#417FD8;}
	.st33{fill:#A0121D;}
	.st34{fill:#64E2D6;}
	.st35{fill:#85AAA5;}
	.st36{fill:#77501D;}
	.st37{fill:#E2699A;}
	.st38{fill:#E0B569;}
	.st39{fill:#FF9843;}
	.st40{fill:#11D31A;}
	.st41{fill:#FF4545;}
	.st42{fill:#7C40DB;}
	.st43{fill:#D8CD41;}
	.st44{fill:#D643D3;}
</style>
<circle class="st0" cx="420" cy="60" r="41"/>
<polygon class="st1" points="1029.71,119.48 988.9,85.19 998.19,32.71 1048.29,14.52 1089.1,48.81 1079.81,101.29 "/>
<polygon class="st2" points="3526.8,118.48 3475.31,104.69 3461.52,53.2 3499.2,15.52 3550.69,29.31 3564.48,80.8 "/>
<polygon class="st3" points="3544.76,113.39 3527,82.62 3544.76,51.85 3580.29,51.85 3598.05,82.62 3580.29,113.39 "/>
<path class="st4" d="M163,63c11,34-29.59,65-63,65s-78.74-17.27-72-50c7-34,31.99-60.84,65-66C125,7,152.71,31.21,163,63z"/>
<path class="st5" d="M2475.41,60.9c9.49,29.34-25.53,56.1-54.37,56.1s-67.95-14.91-62.14-43.15c6.04-29.34,27.61-52.51,56.1-56.96
	C2442.62,12.58,2466.54,33.47,2475.41,60.9z"/>
<g>
	
		<rect x="219.63" y="26" transform="matrix(0.9679 -0.2512 0.2512 0.9679 -6.1838 69.3767)" class="st6" width="98.03" height="65.81"/>
	<circle class="st7" cx="237.5" cy="103.76" r="21.5"/>
	<circle class="st7" cx="320.5" cy="81.76" r="21.5"/>
</g>
<polygon class="st8" points="509.04,129.32 469.64,104.02 431.71,114.49 446.37,78.26 420.06,47.75 465.61,50.93 494.21,10.68 
	497.64,55.34 538.7,75.3 495.27,91.19 "/>
<path class="st9" d="M751,69.53c0,32.57-13.53,47.47-34.48,47.47c-8.86,0-20.26-5.61-30.45-13.8c-13.83,9.47-32.02,13.8-43.69,13.8
	C621.43,117,601,85.64,601,63.02S630.91,23,651.86,23c13.99,0,33.12,1.85,44.29,15.98c3.06-0.13,6.14-0.16,9.16-0.16
	C726.26,38.82,751,26.23,751,69.53z"/>
<path class="st10" d="M937.37,73.33c-9.4,28.59-29.42,35.07-71.75,45.37c-28.3-35.61-41.2-50.8-31.8-79.4
	c9.4-28.59,44.28-35.45,57.4,1.5C920.85,17.9,946.77,44.74,937.37,73.33z"/>
<path class="st11" d="M2367.69,34.12c17.31,24.62,10.54,44.54-6.5,84.64c-45.46,1.41-65.35,2.68-82.67-21.95
	c-17.31-24.62-1.96-56.69,35.5-45.13C2313.37,14.25,2350.38,9.5,2367.69,34.12z"/>
<circle class="st12" cx="797" cy="107" r="8"/>
<rect x="572" y="41" transform="matrix(0.9302 0.3671 -0.3671 0.9302 60.5073 -217.117)" class="st13" width="58" height="19"/>
<polygon class="st14" points="1212.16,68.45 1327.48,75.35 1320.52,114.66 1208.85,87.17 "/>
<path class="st15" d="M1230.59,78.29c1.55,3.25,2.41,6.88,2.41,10.71c0,13.81-11.19,25-25,25c-3.44,0-6.73-0.7-9.71-1.95
	c-4.57,4.89-11.07,7.95-18.29,7.95c-13.5,0-24.5-10.7-24.98-24.08C1142.14,94.91,1132,84.14,1132,71c0-13.81,11.19-25,25-25
	c0-13.81,11.19-25,25-25c10.12,0,18.84,6.01,22.76,14.67c3.38-1.71,7.2-2.67,11.24-2.67c13.81,0,25,11.19,25,25
	C1241,66.36,1236.89,73.77,1230.59,78.29z"/>
<g>
	<path class="st16" d="M1439.37,80.83c0,19.48-20.83,38.93-40.3,38.93c-19.48,0-37.55-18.32-30.23-38.93
		c6.52-18.35,16.25-27.94,35.72-27.94C1424.04,52.9,1439.37,61.36,1439.37,80.83z"/>
	<path class="st16" d="M1487,88.62c0,19.48-5.25,39.38-24.73,39.38c-19.47,0-47.63-18.32-40.3-38.93
		c6.52-18.35,19.02-17.92,35.72-27.94C1466.85,55.64,1487,69.14,1487,88.62z"/>
	<path class="st17" d="M1410.34,69.38c0,0,29.67-14.65,38.97-40.3c0,0,12.5,22.44,7.01,48.09"/>
</g>
<polygon class="st18" points="1627.55,115.42 1526.4,79.91 1574.92,23.9 1636.95,32.15 "/>
<circle class="st19" cx="1715.5" cy="69.5" r="30.5"/>
<circle class="st20" cx="1746.5" cy="90.5" r="30.5"/>
<path class="st21" d="M1872.26,72.2l42.33,15.74c-5.19,13.48-15.99,24.73-30.65,30c-26.76,9.63-56.27-4.26-65.9-31.02
	c-9.63-26.76,4.26-56.27,31.02-65.9c25.91-9.33,54.41,3.41,64.93,28.53L1872.26,72.2z"/>
<path class="st22" d="M3377.04,81.22l-28.09,31.87c10.3,8.87,24.25,13.39,38.75,11.25c26.46-3.91,44.75-28.54,40.84-55.01
	s-28.54-44.75-55.01-40.84c-25.63,3.79-43.59,27.01-41.14,52.51L3377.04,81.22z"/>
<g>
	<path class="st23" d="M2012,113c0,0-42.28,15.56-52-46c-0.53-3.33-1.75-20.5-4-23c-3.86-4.28-2.84-4.24-11.57-9
		c0,0,13.26-22,39.91,0c0,0,13.43-36,34.04,0c0,0,20.04-17.92,35.61-7c0,0-15.96,10.83-14,34c0.35,4.17,0.74,18.88,0,23
		C2038.07,95.7,2034,105.34,2012,113z"/>
	<path class="st24" d="M2017,94c0,0,15-29,56-12C2073,82,2052,124,2017,94z"/>
</g>
<rect x="1324.79" y="22.33" transform="matrix(0.7656 0.6433 -0.6433 0.7656 337.2153 -852.7631)" class="st25" width="28.06" height="28.06"/>
<g>
	<path class="st26" d="M2205.8,98.87c-11.9,22.44-35.79,33.08-53.36,23.77S2123.1,89.44,2135,67s47.44-51.32,65-42
		S2217.71,76.43,2205.8,98.87z"/>
	<path class="st27" d="M2187.05,95.5c-1.05,14.5-24.88,23.34-35.8,18.01C2142,109,2137.75,81.02,2147,65s25-21,49-21
		C2206.52,50.08,2188.39,77.05,2187.05,95.5z"/>
</g>
<circle class="st28" cx="2089" cy="25" r="10"/>
<circle class="st29" cx="2112" cy="47" r="7"/>
<g>
	<path class="st30" d="M2648.63,60.24c-2.2,25.64-28.44,39.4-28.44,39.4s-31.89,15.63-64.42,3.18c-32.52-12.46,0-18.19,0-18.19
		c46.93-3.35,64.38-23.94,69.99-33.4c2.55-4.32,7.03-7.24,12.04-7.49c0.24-0.02,0.49-0.02,0.74-0.02l3.34-14.16l9.87,4.6
		l-7.68,10.97C2647.23,47.11,2649.38,51.5,2648.63,60.24z"/>
	<path class="st30" d="M2637.68,56.27c-13.3,22.03-42.92,22.79-42.92,22.79s-35.52-0.06-59.2-25.61
		c-23.67-25.55,8.03-16.32,8.03-16.32c43.58,17.72,68.34,6.96,77.54,0.96c4.2-2.75,9.5-3.39,14.11-1.4c0.22,0.09,0.45,0.2,0.67,0.3
		l9.25-11.23l6.82,8.49l-11.73,6.45C2642.23,43.87,2642.22,48.75,2637.68,56.27z"/>
</g>
<polygon class="st31" points="2712.58,24.96 2674.84,72.77 2708.64,123.43 2767.28,106.94 2769.71,46.08 "/>
<g>
	<g>
		
			<rect x="2830.43" y="53.71" transform="matrix(0.9634 0.2681 -0.2681 0.9634 126.9967 -765.8409)" class="st32" width="75.24" height="56.87"/>
		<polygon class="st33" points="2886.11,17.23 2910.79,47.94 2935.46,78.66 2873.8,61.5 2812.13,44.34 2849.12,30.79 		"/>
	</g>
	<rect x="2874" y="79" transform="matrix(0.9634 0.2681 -0.2681 0.9634 129.9539 -772.7965)" class="st34" width="42" height="21"/>
</g>
<polygon class="st35" points="2502,91.26 2506.19,100.75 2516.5,99.63 2510.37,108 2516.5,116.37 2506.19,115.25 2502,124.74 
	2497.81,115.25 2487.5,116.37 2493.63,108 2487.5,99.63 2497.81,100.75 "/>
<g>
	<polygon class="st36" points="3058.23,121 2999,121 2985.06,80.06 3078.26,80.06 	"/>
	<path class="st37" d="M2994.13,62.9c-1.35,2.83-2.1,5.99-2.1,9.33c0,12.03,9.75,21.77,21.77,21.77c3,0,5.86-0.61,8.46-1.7
		c3.98,4.26,9.64,6.92,15.93,6.92c11.76,0,21.34-9.32,21.76-20.97c11.22-0.88,20.05-10.26,20.05-21.7
		c0-12.03-9.75-21.77-21.77-21.77c0-12.03-9.75-21.77-21.77-21.77c-8.81,0-16.41,5.23-19.82,12.78c-2.94-1.49-6.27-2.33-9.79-2.33
		c-12.03,0-21.77,9.75-21.77,21.77C2985.06,52.51,2988.64,58.96,2994.13,62.9z"/>
	<circle class="st38" cx="3032.53" cy="56.11" r="13.5"/>
</g>
<g>
	
		<rect x="3141.91" y="27.95" transform="matrix(0.9275 -0.3738 0.3738 0.9275 205.8346 1193.2606)" class="st39" width="75.51" height="75.9"/>
	<polygon class="st40" points="3239.88,16.76 3251.38,49.1 3282.39,34.36 3267.65,65.37 3300,76.88 3267.65,88.38 3282.39,119.39 
		3251.38,104.65 3239.88,137 3228.37,104.65 3197.36,119.39 3212.1,88.38 3179.76,76.88 3212.1,65.37 3197.36,34.36 3228.37,49.1 	
		"/>
</g>
<circle class="st41" cx="2942" cy="118" r="10"/>
<polygon class="st42" points="3678.59,9.26 3696.98,46.52 3738.1,52.49 3708.34,81.5 3715.37,122.45 3678.59,103.12 3641.81,122.45 
	3648.83,81.5 3619.07,52.49 3660.2,46.52 "/>
<rect x="3752" y="75" class="st43" width="66" height="26"/>
<rect x="3785" y="30" class="st44" width="11" height="92"/>
</svg>
