<?xml version="1.0" encoding="utf-8"?>
<!-- Generator: Adobe Illustrator 27.9.0, SVG Export Plug-In . SVG Version: 6.00 Build 0)  -->
<svg version="1.1" xmlns="http://www.w3.org/2000/svg" xmlns:xlink="http://www.w3.org/1999/xlink" x="0px" y="0px" width="150px"
	 height="130px" viewBox="0 0 150 130" style="enable-background:new 0 0 150 130;" xml:space="preserve">
<style type="text/css">
	.st0{display:none;}
	.st1{fill:#8AAD4D;}
	.st2{fill:#333333;}
	.st3{fill:#F4BA38;}
	.st4{fill:#437A45;}
	.st5{fill:#CECECE;}
	.st6{fill:#FFFFFF;}
	.st7{fill:#BF000A;}
	.st8{fill:#1D43BC;}
	.st9{fill:#3E6D32;}
	.st10{fill:none;stroke:#333333;stroke-width:1.0186;stroke-linecap:round;stroke-linejoin:round;stroke-miterlimit:10;}
	.st11{fill:none;stroke:#333333;stroke-width:0.2546;stroke-miterlimit:10;}
</style>
<g id="Layer_1" class="st0">
	
		<image style="display:inline;overflow:visible;" width="900" height="862" xlink:href="1768e99b2930988594540de7083f5679.jpg"  transform="matrix(0.3909 0 0 0.3909 -150.6537 -123.8525)">
	</image>
</g>
<g id="Layer_2">
	<g>
		<g>
			<g>
				<path class="st1" d="M25.3,44.2c0,0,9.6,24.5,40.2,24.1l0.2-3.9c0,0-25.8,3.1-38.3-22l-3.1,0.3L25.3,44.2z"/>
				<g>
					<path class="st2" d="M25.3,44.2c7.6,14.6,23.4,25,40.1,23.9c0,0-0.1,0.1-0.1,0.1s0.2-3.9,0.2-3.9s0.2,0.2,0.2,0.2
						c-3.7,0.3-7.4,0-11.1-0.7c-12.4-2.1-23.8-10.4-27.7-22.6c0,0,0.1,0,0.1,0S25.3,44.2,25.3,44.2L25.3,44.2z M25.3,44.2
						c0,0,1.6-3,1.6-3c0-0.1,0.1-0.1,0.1,0c4.1,11.8,15.5,20,27.7,22.2c3.6,0.7,7.3,1,10.9,0.8c0.1,0,0.2,0.1,0.2,0.2
						c0,0-0.3,3.9-0.3,3.9c0,0.1-0.1,0.1-0.1,0.1C48.3,69.1,32.7,59.7,25.3,44.2L25.3,44.2z"/>
				</g>
			</g>
			<g>
				<g>
					<path class="st3" d="M15.8,24.4c0,0-5.9-3.2-8.4-3.5c-2-0.2-4.2-0.1-5.6,2.8c-0.8,1.8-0.8,3.8,0,5.6c1.6,3.6,3.9,3.3,5.2,3.1
						c1.6-0.2,6.1-3.7,7.9-2.2s-3.2,3.4-5,4.4c-1.8,1-4.3,6.3-0.7,8.4c1.2,0.6,2.2,1,3,1.1c2.3,0.4,4.5-1.3,4.7-3.6s0.4-5.4,2.4-6.1
						c3-0.9,3.3,4,3.3,4s-0.3,8.1,5.8,6.8c3.7-0.8,5.4-4.4,5.1-6.5c-0.2-1.3-2.1-2.6-3.2-3.2c-1.9-1.1-5.1-3.2-4.7-4.4
						c0.5-1.8,5.3,0.9,5.3,0.9s5.5,3.4,7.9-0.4s0.1-8.5-2.7-8.1c-2.8,0.4-8.3,4.1-9.2,2.7c-0.9-1.5,3.2-3,3.2-3s7.1-3.5,4.6-8.2
						c-0.5-1-1.5-1.7-2.6-2.1c-6.7-2.1-6.1,8.6-8.6,9.6c-2.7,1-2.2-3.9-2.2-3.9s1.3-8.7-4.6-8.8c-3.4-0.1-5.5,3-5.1,5
						c0.2,1.1,0.7,2.4,1.4,3.2c1.6,1.8,4.9,5,4.5,6.3C17.3,25.1,15.8,24.4,15.8,24.4z"/>
					<circle class="st4" cx="21" cy="28.4" r="4.1"/>
				</g>
				<g>
					<path class="st2" d="M17.4,30.4c-0.9-2.4,0.1-6.1,3.1-6.1c2.3-0.1,4.3,1.1,4.6,3.6c0.1,1.3-0.2,2.6-1.1,3.6
						C22.1,33.3,18.5,33,17.4,30.4L17.4,30.4z M17.5,30.4c1,2.4,4.4,2.3,6.1,0.7c0.8-0.8,1.2-2.1,1.1-3.2c-0.1-2.4-1.9-3.6-4.2-3.3
						C18,24.9,16.8,28.2,17.5,30.4L17.5,30.4z"/>
				</g>
				<g>
					<path class="st2" d="M17.6,24.2c0.2-0.4-0.1-0.8-0.3-1.2c-1.4-2.7-4.5-4.3-5.5-7.3c-0.6-1.7,0.1-3.7,1.5-4.8
						c1.4-1,3.3-2.1,5-1.2c3.1,2,3.4,6.3,3.3,9.6c0,1.3,0.5,4.2,2.3,2.8c1.2-1.2,1.6-3,1.9-4.6c1-3.8,4.2-6.8,8-4.1
						c3,1.8,1.6,5.7-0.4,7.7c-1.3,1.5-3.3,1.8-4.9,3c-0.8,0.4-2.2,1.9-0.7,2.2c1.8,0,3.5-1.1,5.1-1.9c3.1-2.1,5.8-1.3,6.8,2.4
						c1.6,5.9-2.2,7.7-7.3,5.8c-1-0.5-6.2-3.5-6.5-1.5c0.2,1.8,2.4,2.8,3.8,3.7c2.4,0.9,4.7,3.1,3.7,5.9c-1.3,4.1-6.1,5.5-9.3,2.5
						c-1.4-1.3-1.9-3.4-1.6-5.3c0.1-1.7-1-4.2-3-3.5c-2.5,1-2.2,4.3-2.7,6.6c-0.7,2.7-3.7,4.3-6.1,2.7c-3.5-1.9-4.5-5.7-1.3-8.5
						c1.6-1.8,4.7-1.7,5.6-4.1c0.4-0.8-0.6-1.1-1.2-1c-2.4,0.2-4.6,1.4-6.7,2.5c-1.3,0.4-2.7,0-3.7-0.9c-2.6-2.7-3.1-8,0.3-10.1
						c4.3-2.6,8.2,1.9,12.2,3C16.5,24.7,17.3,24.9,17.6,24.2L17.6,24.2z M17.6,24.3c-0.1,0.3-0.4,0.6-0.7,0.5
						c-2.2-0.3-4.1-1.6-6-2.5c-5-3.3-10.6-0.2-8.9,5.9c0.5,2.4,2.5,4.7,5,4c1.7-0.8,7.4-4.2,8.6-1.7c-0.1,3.2-4.1,3.1-5.8,5
						c-1.5,1.3-2.4,3.4-1.4,5.3c2,3.5,6.8,4.8,8.3,0.1c0.4-1.8,0.3-3.9,1.4-5.5c1.3-2.1,3.8-1.6,4.5,0.6c0.5,1.2,0.1,2.5,0.2,3.8
						c0.1,1.2,0.7,2.4,1.6,3.3c1.8,1.8,4.8,2.2,6.8,0.6c1.9-1.4,3.3-4.4,1.5-6.5c-1.6-2-4.4-2.4-6.2-4.3c-1.2-1-1.3-3,0.7-2.7
						c2.6,0.3,4.5,2.2,7.1,2.6c5.2,0.9,6.2-2.4,4.7-6.7c-0.6-1.9-2.3-2.9-4.2-2.1c-2.3,1-4.4,2.8-7.1,2.8c-0.8,0-1.4-1-1-1.7
						c1.4-2.3,4.4-2.5,6.2-4.3c1.6-1.7,2.9-4.5,1.1-6.5c-3.7-3.2-6.8-0.7-7.9,3.3c-0.4,1.6-0.8,3.6-2.1,4.8
						c-0.8,0.8-2.1,0.5-2.5-0.5c-0.7-1.7-0.5-3.5-0.5-5.2c-0.1-1.7-0.6-3.4-1.3-4.9c-0.8-1.5-2.4-2.6-4.1-1.9
						c-1.5,0.6-3.2,1.6-3.7,3.2c-1.2,4.5,4.3,6.7,5.6,10.4C17.7,23.8,17.8,24,17.6,24.3L17.6,24.3z"/>
				</g>
			</g>
		</g>
		<g>
			<polygon class="st5" points="43.2,19.2 44.6,23.8 46.2,19.7 46.5,24.5 50.3,21.1 50.1,25.4 53.4,21.8 54,25.6 56.6,21.9 57,26.3 
				59,22.5 60,26.3 62.3,22.4 63,27.2 66.2,22.9 			"/>
			<polygon class="st5" points="65.4,31.8 64,27.1 62.4,31.2 62.1,26.4 58.3,29.8 58.5,25.5 55.2,29.1 54.6,25.3 52,29 51.6,24.7 
				49.6,28.5 48.6,24.6 46.3,28.6 45.6,23.7 42.4,28 			"/>
			<path class="st6" d="M76.8,82.4c-0.1-0.1-0.1-0.1-0.2-0.2c0.1-0.1,0.2-0.1,0.2-0.1C76.8,82.2,76.8,82.3,76.8,82.4z"/>
			<path class="st7" d="M148.1,105.8c-0.7,2.9-1.8,5.9-3.6,9c-1.4,2.4-3,4.4-4.6,5.9c-2.2,2.1-4.4,3.6-6.6,4.6
				c-7.9,3.6-15.2,1.4-15.2,1.4s-4.4-0.6,1.5-4.7c5.9-4,17.1-8.6,14.7-18.7c-1.6-6.9-11.3-9.8-17.2-11c-2.5-0.5-5-0.6-7.6-0.3
				c-3.6,0.4-9.9,0.8-15,0.1c-5,6.9-7.2,16.6-7.2,16.6s1.1,4.3-0.3,4.7c-1.4,0.3-13.4-1.3-13.4-1.3s-8.7-1.7-4.1-4.2
				c4.6-2.5,12.1,0.2,12.1,0.2s1.5-2.2,0-15.7c-0.3-2.7-0.3-5.1-0.1-7.2c0-0.1,0-0.2,0-0.3c-0.1,0-0.2,0.1-0.2,0.1
				c-7.8,4.6-13.8,14.6-13.8,14.6l-2.2,5.6c0,0-18.1-10.2-14.9-12.4c3.2-2.3,11.9,4.4,11.9,4.4s2.2-1.6,4.9-14.9
				c1-4.7,2.6-8.2,4.3-10.7c-1.4-2.8-2.7-6-3.9-9.6c-2.6-0.1-4.8-0.4-5.6-0.1c-2.1,0.7-0.4,4.6-0.4,4.6l-5.3,1.2
				c-1.1-3.1-1.2-6.2-1.2-6.2c0.8-4.8,4.7-6.5,7.8-7c-2.1-1.7-3.8-3.5-4.7-3.7c-2.1-0.7-3.1,3.4-3.1,3.4l-5-2.2
				c0.9-3.2,2.8-5.6,2.8-5.6c4-3.9,8.9-1.9,11.7-0.3c0-2.4,0.2-4.6,0.6-6.5c-1.9,0.1-3.8,0-5.4-0.2c-8.2-1-17.8-7.7-17.9-9.5
				c-0.1-1.8-2.1-6.8,13.6-1.6c15.7,5.2,10.4-2,10.4-2s-2-2.8-9.2-2.7c-5.1,0.1-12.3-2-15.6-3.2c-2.4-0.9-3.2-4.1-2.2-6.1
				c0.3-0.7,0.9-1.2,1.6-1.5c0.5-0.2,1.1-0.6,1.6-0.8c0.4-0.2,0.9-0.4,1.4-0.5c2.6-0.6,4-0.6,6-1.5l1.2-0.5c1.4-0.7,2.2-0.9,4-2
				c4-3.3,12.3-8.4,21.5-1.1c1.7,1.3,3.3,3.1,4.9,5.4c0.4,0.6,0.7,1.2,1,1.8c0.3,0.6,0.5,1.2,0.7,1.9c0,0.1,0,0.1,0.1,0.2
				c0,0.1,0.1,0.2,0.1,0.3c0.4,1.8,0.9,4.6,0.9,7.9c0,1.7,0,3.6-0.3,5.5c-0.2,1.8-1.1,3.4-2.4,4.7c0.1,0.5,0.7,2.1,2.3,4.5
				c1.1,1.7,2.8,3.9,5.1,6.2c1.6,1.6,3.7,3.4,6.1,5.2c1.8,1.3,3.8,2.6,6.1,3.9c2.7,1.6,5.8,3.1,9.4,4.6c0.2,0.1,0.4,0.2,0.6,0.3
				c2.1,0.9,4,1.8,5.8,2.7c5.4,2.7,9.9,5.5,13.6,8.1l0,0c2.9,2.1,5.3,4.1,7.3,5.9c4.8,4.4,6.8,7.5,6.8,7.5s2.6,3.8,3.9,9.8l0,0
				C148.8,96.4,149.2,100.9,148.1,105.8z"/>
			<path class="st8" d="M81,11.7c0.4,0.6,0.7,1.2,1,1.8c-3.4,2.9-6.6,1-6.6,1c2.4-3.1,1.5-6.4,0.7-8.2C77.9,7.7,79.5,9.4,81,11.7z"
				/>
			<path class="st8" d="M82.2,13.4C82.1,13.5,82.1,13.5,82.2,13.4c-0.1,0-0.2-0.1-0.2-0.1C82,13.4,82.1,13.4,82.2,13.4z"/>
			<path class="st8" d="M82.1,13.5c0-0.1-0.1-0.2-0.1-0.2C82,13.4,82.1,13.4,82.1,13.5C82.1,13.5,82.1,13.5,82.1,13.5z"/>
			<path class="st8" d="M83.7,23.9c-1.9,0-3.2-1-3.2-1c2.5-2.4,2.5-5.2,2.2-7.2c0,0.1,0.1,0.2,0.1,0.3
				C83.2,17.8,83.7,20.6,83.7,23.9z"/>
			<path class="st8" d="M87.8,44.9c-3.7,4.5-9.7,4.2-9.7,4.2c3.8-2.9,4.8-7.7,5-10.7C84.1,40.2,85.6,42.5,87.8,44.9z"/>
			<path class="st8" d="M100.1,54.5c-4,8.9-11.1,9.9-11.1,9.9c3.8-4.2,4.8-9.8,5-13.9C95.8,51.9,97.8,53.2,100.1,54.5z"/>
			<path class="st8" d="M115.9,62.3c-4.1,7.3-8.3,8.7-8.3,8.7c2.4-4.7,2.7-8.7,2.4-11.3C112.1,60.4,114.1,61.3,115.9,62.3z"/>
			<path class="st8" d="M136.7,75.8c-3.5,7-12.4,7.7-12.4,7.7c4.7-4.1,5.3-10.1,5.2-13.6C132.3,72,134.7,74,136.7,75.8z"/>
			<path class="st8" d="M147.6,105.6c-4.9-0.1-11.8-9.7-11.8-9.7c6.7,3.1,10.3-0.9,11.8-3.4C148.4,96.2,148.7,100.7,147.6,105.6z"/>
			<path class="st8" d="M139.8,120.8c-2.2,2.1-4.4,3.6-6.6,4.6c-2.7-4,1.8-11.2,1.8-11.2C133.8,119.1,136.7,120.5,139.8,120.8z"/>
			<ellipse transform="matrix(0.986 -0.1667 0.1667 0.986 -1.6934 10.3087)" class="st2" cx="60.6" cy="15.2" rx="1.5" ry="1"/>
			<polygon class="st9" points="50.2,51.2 55.6,53.9 53.4,58.2 52.8,55.1 49.7,58.2 50.3,53.8 47.2,55.4 			"/>
			<polygon class="st9" points="55.6,67.1 62.2,65.7 63.1,70.5 61,68.6 60.7,72.5 58,69.5 57.2,72.4 			"/>
			<g>
				<path class="st2" d="M39.1,14.2c1.7-2.6,5.3-2.8,8.1-3.3c2.9-0.7,5.7-1.9,8.2-3.6c2.4-1.8,5-3.3,8-4.2C69,1.5,75.7,4.7,79.5,9
					c5,6.1,6.3,16.4,3.4,23.6c-0.4,0.7-0.8,1.6-1.8,1.6c0,0,0.2-0.3,0.2-0.3c2.4,7,7.8,12.7,13.6,17.1c5.9,4.5,12.8,7.4,19.7,10.2
					c11.3,5.2,23.9,13.1,29.8,24.5c6.4,11.2,5.3,24.3-3.1,34.1c-6,6.1-15.1,8.6-23.4,7.1c-0.8-0.2-1.7-0.1-2.1-0.9
					c-1-2.4,5-5,6.7-6.1c3.2-1.9,6.4-3.8,8.9-6.4c2.6-2.6,3.3-6.6,2.6-10c-2-7.2-10.5-11.2-17.3-12.5c-3.8-0.6-7.5,0.3-11.3,0.6
					c-3.8,0.3-7.7,0.6-11.5,0c0,0,0.3-0.1,0.3-0.1c-2.8,5.5-5.5,11.2-6.5,17.3c0.2,0.8,0.4,2.5,0.2,3.6c-0.1,0.4-0.2,0.8-0.5,1.2
					c0,0-0.1,0.1-0.2,0.1c-3.4-0.1-6.8-0.3-10.1-0.8c-2-0.4-9.7-1.1-8.3-4.3c3.6-3.1,9-1.8,13.1-0.5c0,0-0.2,0.1-0.2,0.1
					c0.8-1.8,1-3.9,1.1-5.9c0.1-6.1-0.1-12.3-0.9-18.4c0,0,0.2,0.1,0.2,0.1c-5.7,4.3-10.8,9.7-14.3,15.9c0,0-1.9,4.8-1.9,4.8
					c0,0.1-0.1,0.1-0.2,0.1c-2.7-1.4-5.4-3-8-4.6c-2.2-1.5-4.7-2.9-6.2-5.2c-0.2-0.3-0.4-0.9-0.1-1.3c1.5-1.8,4.2-0.4,5.9,0.4
					c1.9,0.9,3.6,2,5.3,3.2c0,0-0.2,0-0.2,0c1.4-1.7,1.9-4,2.6-6.1c1.6-5.5,2.6-11.2,4.8-16.5c0.5-1.1,0.8-2.2,1.8-3.1
					c0,0-0.1,0.4-0.1,0.4c-1.7-3.1-3.2-6.2-4-9.7c0,0,0.2,0.2,0.2,0.2c-3.3-1-9.3-2.3-5.9,3.3c0.1,0.2,0,0.4-0.2,0.4
					c0,0-4.8,1-4.8,1c-0.2,0-0.3-0.1-0.4-0.2c-1.2-3.8-0.4-8.5,3.1-10.8c1.1-0.8,2.3-1.3,3.6-1.7c0,0-0.1,0.6-0.1,0.6
					c-1.6-1.3-3-2.8-4.8-3.8c0,0-0.1,0,0,0c0,0-0.1,0-0.1,0c-0.9,0.6-1.3,2.1-1.9,3.1c-0.1,0.2-0.3,0.2-0.4,0.2
					c-0.8-0.4-3.2-1.6-4-2c0,0-0.7-0.3-0.7-0.3s-0.3-0.2-0.3-0.2c-0.2-0.1-0.3-0.1-0.4-0.3c-0.1-0.2-0.1-0.5,0-0.6
					c0.8-1.8,2.1-3.3,3.6-4.4c3.5-2.5,8.2-1.4,11.5,0.8c0,0-0.4,0.2-0.4,0.2c0.2-2.9,0.3-5.8,1-8.7c0,0,0.3,0.3,0.3,0.3
					c-6.6,0.6-13.2-1.5-19.1-4.4c-3.5-1.4-8-6.9-2.1-8.5c2.6-0.4,5.3,0.5,7.8,1.2c3.7,1.1,7.3,3,11.3,3.1c4,0.1,3.8-2.5,1.1-4.6
					c-2-1.5-4.5-1.9-6.9-2.1c-3.5,0.4-6.9-0.4-10.4-1.2c-2.8-0.7-5.8-1.3-8.1-3.1C38.7,17.9,38.4,15.8,39.1,14.2L39.1,14.2z
					 M39.1,14.3c-0.9,2.2,0,4.9,2.2,5.8c4.2,1.9,8.9,2.7,13.5,3.4c1.2,0.2,2.3-0.2,3.5-0.1c1.2,0.1,2.4,0.3,3.5,0.6
					c3.9,0.4,9.3,6.4,2.3,6.6c-6.6-0.2-12.4-4.9-19-4.2c-3.3,0.8-3.2,3.5-1,5.6c1.8,1.9,4.4,2.8,6.7,3.8c4.8,1.9,10.1,3.2,15.2,2.7
					c0.2,0,0.3,0.1,0.3,0.3c-0.7,2.8-0.8,5.7-1,8.6c0,0.2-0.2,0.3-0.4,0.2c-5.4-3.6-11.6-2.7-14.4,3.5c0,0,0,0,0-0.1
					c0,0,5.2,2.6,5.2,2.6l-0.4,0.2c0.7-1.1,1-2.8,2.3-3.5c0.2-0.1,0.4-0.1,0.6,0c1.9,1,3.4,2.6,5,4c0.2,0.2,0.1,0.5-0.1,0.6
					c-1.2,0.4-2.4,0.9-3.4,1.6c-3.2,2.2-3.9,6.6-2.9,10.1c0,0-0.4-0.2-0.4-0.2l4.8-0.9c0,0-0.2,0.4-0.2,0.4c-0.6-1.1-1.6-3-0.5-4.3
					c0.4-0.5,1-0.6,1.5-0.7c2-0.2,3.8,0.3,5.7,0.9c0.1,0,0.2,0.1,0.2,0.2c0.3,1.7,0.9,3.3,1.6,4.9c0.7,1.6,1.4,3.1,2.3,4.6
					c0.1,0.1,0,0.3-0.1,0.4c-0.8,0.6-1.2,1.9-1.6,2.8c-3.1,7.1-3.5,15.1-7,22.1c-0.2,0.3-0.3,0.5-0.6,0.7c-0.1,0-0.2,0-0.2,0
					c-2.5-1.7-5.1-3.5-8-4.3c-0.9-0.2-2.1-0.2-2.6,0.6c-0.3,1.3,1.6,2.5,2.4,3.3c3.6,2.8,7.6,5.1,11.7,7.3c0,0-0.2,0.1-0.2,0.1
					l1.9-4.8c1.8-3.2,3.9-6.1,6.4-8.8c2.4-2.7,5.1-5.1,8-7.3c0.1,0,0.1,0,0.2,0c0.9,6.1,1,12.4,0.9,18.5c-0.1,2.1-0.3,4.1-1.1,6.1
					c0,0.1-0.1,0.1-0.2,0.1c-4-1.2-9.2-2.5-12.7,0.4c-0.9,2.8,6.2,3.4,8.1,3.7c3.1,0.5,7.5,0.6,9.9,0.8c0.8-1.3,0.4-3.1,0.2-4.6
					c0.5-3.1,1.5-6.1,2.6-9c1.2-2.9,2.5-5.7,3.9-8.5c0.1-0.1,0.2-0.2,0.3-0.1c3.7,0.6,7.6,0.3,11.3,0c3.8-0.4,7.6-1.3,11.4-0.7
					c8.8,1.5,20.4,8.1,17.9,18.6c-2.1,7.7-10.8,10.2-16.5,14.4c-1.5,1.2-3,2.6-0.1,2.8c8.1,1.4,17-1,22.8-6.9
					c6.7-7.7,9.1-18.7,5.3-28.3c-3.7-10.6-12.5-18.3-21.9-24c-6.3-4-13.3-6.4-20-9.7c-6.7-3.3-12.9-7.8-17.6-13.6
					c-2.3-2.9-4.4-6.1-5.6-9.7c0-0.1,0-0.2,0.1-0.3c0.7,0.1,1.1-0.8,1.4-1.3c2.1-4.8,1.9-10.3,0.7-15.3C81.5,9.6,75.3,4.1,67.7,3
					c-4.5-0.5-8.8,1.9-12.3,4.5c-2.5,1.7-5.3,2.9-8.2,3.6C44.4,11.5,40.8,11.7,39.1,14.3L39.1,14.3z"/>
			</g>
			<g>
				<path class="st2" d="M66.6,2.7c7,0.5,13.6,4.8,16.1,11.5c2.2,4.9,1.3,10.1,1.1,15.5c-0.4,1.6-1,3.8-2.8,4.4c0,0-0.1,0-0.1-0.1
					c1.1-1.2,1.3-3,1.7-4.6c0.4-1.6,1-3.3,0.9-5c-0.4-3.4-1.1-6.7-1.8-10c-0.8-3.3-3.2-6-5.8-8c-2.7-2-6-3.2-9.4-3.7
					C66.6,2.8,66.6,2.6,66.6,2.7L66.6,2.7z"/>
			</g>
			<g>
				<path class="st2" d="M50.6,51.5c-1.1,1.4-2.2,2.7-3.3,4l-0.2-0.3c1-0.5,2.1-1,3.1-1.5c0.2-0.1,0.3,0.1,0.3,0.2
					c-0.2,1.4-0.4,2.9-0.7,4.3c0,0-0.1-0.1-0.1-0.1c1-1.1,2-2.1,3-3.2c0.1-0.1,0.3,0,0.3,0.1c0,0,0.4,3.1,0.4,3.1
					c0,0-0.5-0.1-0.5-0.1c0.7-1.5,1.5-2.9,2.2-4.3l0.1,0.3C53.8,53.2,52.2,52.4,50.6,51.5L50.6,51.5z M50.6,51.4
					c1.6,0.6,3.2,1.4,4.9,2.1c0.1,0.1,0.2,0.2,0.1,0.3c-0.7,1.5-1.5,2.9-2.3,4.3c-0.1,0.2-0.4,0.1-0.5-0.1c0,0-0.3-3.1-0.3-3.1
					l0.3,0.1c-1.1,1-2.1,2.3-3.3,3c0-1.5,0.2-3,0.4-4.4c0,0,0.3,0.2,0.3,0.2c-1,0.5-2.1,1-3.1,1.5c-0.1,0-0.2,0-0.3-0.1
					c0-0.1,0-0.2,0-0.2C48.2,53.9,49.4,52.6,50.6,51.4L50.6,51.4z"/>
			</g>
			<g>
				<path class="st2" d="M56.1,67.2c0.5,1.6,0.9,3,1.3,4.4c0,0-0.4,0-0.4,0c0.3-0.7,0.5-1.5,0.8-2.2c0-0.1,0.1-0.1,0.2-0.1
					c0.8,0.8,1.6,1.6,2.5,2.4c0,0-0.1,0-0.1,0c0.2-1,0.3-2.1,0.4-3.2c0-0.1,0.2-0.2,0.3-0.1c0.7,0.6,1.4,1.2,2.1,1.8
					c0,0-0.4,0.2-0.4,0.2c-0.5-1.6-1-3.2-1.5-4.8l0.3,0.2C59.9,66.4,58.1,66.7,56.1,67.2L56.1,67.2z M56.1,67.1
					c1.7-0.6,3.5-1.2,5.4-1.7c0.1,0,0.3,0,0.3,0.2c0.5,1.6,1,3.2,1.5,4.8c0.1,0.2-0.2,0.4-0.4,0.2c-0.7-0.6-1.3-1.3-2-1.9l0.3-0.1
					c-0.2,0.8-0.4,2.6-0.7,3.2c-0.9-0.7-1.7-1.5-2.6-2.2c0,0,0.3-0.1,0.3-0.1c-0.2,0.8-0.5,1.5-0.8,2.2c-0.1,0.2-0.4,0.2-0.4,0
					C56.6,70.2,56.3,68.6,56.1,67.1L56.1,67.1z"/>
			</g>
			<g>
				<path class="st2" d="M76.2,6.3c1.9,2.5,0.8,5.8-0.6,8.4c0,0-0.1-0.3-0.1-0.3c1.5,0.7,3.4,0.6,5-0.1c0.6-0.2,1.1-0.6,1.6-0.8
					c-0.4,0.4-0.9,0.8-1.4,1.1c-1.6,0.9-3.7,1.1-5.3,0.1c-0.1-0.1-0.1-0.2-0.1-0.3C77.2,12.2,77,8.9,76.2,6.3L76.2,6.3z"/>
			</g>
			<path class="st10" d="M77.7,15.1"/>
			<path class="st10" d="M83,18.7"/>
			<g>
				<path class="st2" d="M83,17.4c0.5,2-0.5,4.8-2.4,5.4c0.8,0.8,2,1.4,3.1,0.9c0,0-0.1,0.1-0.1,0.1C83.3,21.8,83.2,19.5,83,17.4
					L83,17.4z M83,17.4c0.2,2.2,0.9,4.4,0.8,6.6c-1.2,0.4-2.4-0.2-3.2-1.1C82.3,21.7,83.1,19.5,83,17.4L83,17.4z"/>
			</g>
			<g>
				<path class="st2" d="M83.4,38.5c0.9,4.3-2.1,8.1-5.1,10.8c0,0-0.1-0.5-0.1-0.5c2.6,0,5.2-1,7.5-2.4c0.8-0.4,1.5-1.1,2.3-1.6
					c-0.5,0.8-1.2,1.4-1.9,2c-2.2,1.8-5.1,2.8-7.9,2.4c-0.1,0-0.2-0.2-0.2-0.3c0.7-0.7,1.8-1.2,2.4-2.1
					C82.2,44.6,82.9,41.3,83.4,38.5L83.4,38.5z"/>
			</g>
			<g>
				<path class="st2" d="M94.5,48.3c-0.1,5.4-0.9,12.6-5.4,16.2c0,0-0.1-0.3-0.1-0.3c2.7-0.5,4.8-2.6,6.7-4.5c1.9-2,3.6-4.3,5.3-6.4
					c-2.6,4.3-6.7,10.4-12,11.2c-0.1,0-0.2-0.2-0.1-0.3c2.5-1.5,3.4-4.7,4.1-7.4C93.7,54.1,94,51,94.5,48.3L94.5,48.3z"/>
			</g>
			<g>
				<path class="st2" d="M109.9,57.3c0.5,4.6,0.4,9.6-2.2,13.7c0,0-0.2-0.3-0.2-0.3c3.3-1.8,5.4-5.3,7.8-8.1c0,0,2.3-3.1,2.3-3.1
					c-0.4,1-1.3,2.2-2,3.3c-1.8,2.6-3.8,5.2-6.3,7.3c-0.5,0.4-1,0.8-1.7,1c-0.1,0-0.2,0-0.2-0.1C109.9,67,110.2,61.8,109.9,57.3
					L109.9,57.3z"/>
			</g>
			<g>
				<path class="st2" d="M129.5,69.9c0.5,5-1.1,10.5-5.1,13.7c0,0-0.1-0.2-0.1-0.2c5.1-0.4,9.6-3.5,12.4-7.6
					c-1.7,3.5-4.9,6.2-8.6,7.3c-1.2,0.4-2.5,0.6-3.8,0.6c-0.1,0-0.1-0.1-0.1-0.1c0.9-0.8,2-1.6,2.7-2.8
					C128.7,77.5,129.1,73.5,129.5,69.9L129.5,69.9z"/>
			</g>
			<g>
				<path class="st2" d="M148.2,91.4c-1.9,5.6-7.4,7.3-12.6,4.8c0,0,0.4-0.5,0.4-0.5c0.8,1,1.7,2,2.6,3c1.8,1.9,3.5,3.8,5.6,5.4
					c1,0.8,2.2,1.6,3.5,1.5c-3.8,1.1-9.9-6.7-12.1-9.5c-0.2-0.2,0.1-0.6,0.4-0.5C141.2,98.3,145.8,96.7,148.2,91.4L148.2,91.4z"/>
			</g>
			<g>
				<path class="st2" d="M139.8,120.8c-4.2,0.7-6-3-5.2-6.7c0,0,0.7,0.3,0.7,0.3c-2.1,3.2-3.1,7.2-2.1,11c-2.4-3.5-0.5-8.1,1.5-11.4
					c0.1-0.2,0.4-0.2,0.5-0.1c0.1,0.1,0.2,0.2,0.2,0.4C134.6,117.8,136.2,120,139.8,120.8L139.8,120.8z"/>
			</g>
			<g>
				<path class="st2" d="M43.8,21.2c0.4,0.8,0.7,1.7,1,2.6l-0.2,0c0.3-0.7,0.6-1.4,1-2.1c-0.2,0.7-0.5,1.4-0.8,2.1
					c0,0.1-0.1,0.1-0.2,0.1C44.2,23.1,44,22.1,43.8,21.2L43.8,21.2z"/>
			</g>
			<g>
				<path class="st2" d="M46.3,22l0.3,2.5l-0.2-0.1c0.7-0.7,1.4-1.3,2.2-1.8c-0.5,0.7-1.3,1.4-2,1.9c-0.1,0.1-0.2,0-0.2-0.1
					C46.4,24.5,46.3,21.9,46.3,22L46.3,22z"/>
			</g>
			<g>
				<path class="st2" d="M50.2,22.9c0.4,0.7,0.2,1.7,0.2,2.5c0,0-0.4-0.2-0.4-0.2c0.6-0.6,1.2-1.7,2-2c-0.2,0.9-1.1,1.6-1.6,2.3
					c-0.1,0.2-0.5,0.1-0.4-0.2c0,0,0-1.2,0-1.2C49.9,23.7,50,23.3,50.2,22.9L50.2,22.9z"/>
			</g>
			<polyline class="st11" points="53.6,23.6 54,25.6 55.3,23.6 			"/>
			<g>
				<path class="st2" d="M56.9,23.3l0.2,2.9l-0.3-0.1l1.9-3l-1.6,3.2c-0.1,0.1-0.3,0.1-0.3-0.1c0,0-0.4-2.9-0.4-2.9
					C56.4,23,56.9,23,56.9,23.3L56.9,23.3z"/>
			</g>
			<g>
				<path class="st2" d="M59.3,23.6c0.4,0.9,0.7,1.8,0.9,2.7l-0.5-0.1c0.3-0.4,0.5-0.9,0.8-1.3c0.3-0.4,0.6-0.8,0.9-1.2
					c-0.2,0.5-0.4,1-0.6,1.4c-0.2,0.5-0.5,0.9-0.7,1.4c-0.1,0.1-0.2,0.2-0.3,0.1C59.4,25.7,59.4,24.6,59.3,23.6L59.3,23.6z"/>
			</g>
			<g>
				<path class="st2" d="M62.5,24.3c0.5,0.9,0.6,1.9,0.6,3c0,0-0.2,0-0.2,0c0.5-0.7,0.7-1.6,1.5-2.1c0.1,0.2-0.4,1-0.5,1.2
					c-0.3,0.3-0.6,0.6-0.8,1c0,0-0.1,0.1-0.1,0C62.6,26.5,62.2,25,62.5,24.3L62.5,24.3z"/>
			</g>
			<g>
				<path class="st2" d="M43.6,26.7l1.9-3c0,0,0.1,0,0.1,0c0,0,0.3,2.2,0.3,2.2l-0.4-2.2l0.1,0l-1.8,3.1
					C43.7,26.9,43.5,26.8,43.6,26.7L43.6,26.7z"/>
			</g>
			<g>
				<path class="st2" d="M47.6,26.2c0.1-0.3,0.2-0.6,0.4-0.9c0,0,0.5-0.8,0.5-0.8c0.1-0.1,0.2-0.1,0.2,0c0,0,0.3,0.9,0.3,0.9
					l0.1,0.5l0,0.5L48.9,26c-0.1-0.3-0.3-1.1-0.4-1.4c0,0,0.2,0,0.2,0l-0.5,0.8C48,25.7,47.8,26,47.6,26.2L47.6,26.2z"/>
			</g>
			<g>
				<path class="st2" d="M50.5,26.6c1.5-2.8,1.1-2.9,1.7,0.3c0,0.1-0.1,0.3-0.2,0.3c-0.1,0-0.3-0.1-0.3-0.2c0,0-0.1-2.3-0.1-2.3
					l0.2,0.1L50.5,26.6L50.5,26.6z"/>
			</g>
			<g>
				<path class="st2" d="M53.2,27.3c0.4-0.7,0.8-1.4,1.2-2c0-0.1,0.1-0.1,0.2,0c0.2,0.9,0.2,1.8,0.3,2.7c-0.2-0.9-0.4-1.7-0.5-2.6
					l0.2,0.1C54.2,26,53.7,26.7,53.2,27.3L53.2,27.3z"/>
			</g>
			<g>
				<path class="st2" d="M55.7,28.6c0.7-1.2,1.6-2.2,2.6-3.2c0.1-0.1,0.2-0.1,0.3,0c0.1,1.6-0.2,3.3-0.3,4.9c0,0-0.1,0-0.1,0
					c0-1.6,0-3.2,0-4.8l0.4,0.2C57.8,26.7,56.8,28,55.7,28.6L55.7,28.6z"/>
			</g>
			<g>
				<path class="st2" d="M58.9,29.3l3.2-3c0,0,0.1,0,0.1,0c0,0,0.5,4.1,0.5,4.1c0,0.1,0,0.1-0.1,0.1c-0.1,0-0.1,0-0.1-0.1
					c0,0-0.3-4.1-0.3-4.1l0.1,0L58.9,29.3L58.9,29.3z"/>
			</g>
			<g>
				<path class="st2" d="M62.9,30.1c0.1-0.9,0.7-2.1,1-3c0-0.1,0.2-0.1,0.2,0c0,0,0.4,1.5,0.4,1.5l0.2,0.7l0.1,0.8l-0.3-0.7
					l-0.2-0.7l-0.4-1.5l0.2,0C63.7,28,63.4,29.3,62.9,30.1L62.9,30.1z"/>
			</g>
		</g>
	</g>
</g>
</svg>
