<?xml version="1.0" encoding="utf-8"?>
<!-- Generator: Adobe Illustrator 27.9.0, SVG Export Plug-In . SVG Version: 6.00 Build 0)  -->
<svg version="1.1" id="Layer_1" xmlns="http://www.w3.org/2000/svg" xmlns:xlink="http://www.w3.org/1999/xlink" x="0px" y="0px"
	 width="700px" height="700px" viewBox="0 0 700 700" style="enable-background:new 0 0 700 700;" xml:space="preserve">
<style type="text/css">
	.st0{clip-path:url(#SVGID_00000085959260588102774720000001996044815736638878_);}
	.st1{clip-path:url(#SVGID_00000145749138993015482890000010945557671020940952_);}
	.st2{clip-path:url(#SVGID_00000010307836436747840860000002898648920244644271_);}
</style>
<g>
	<g>
		<g>
			<defs>
				<path id="SVGID_1_" d="M206.8,6.6c-36.8,1.7-61.9,7.6-83.9,16.2c-22.7,8.9-42,20.7-61.2,40c-19.2,19.3-31,38.6-39.8,61.3
					c-8.5,22-14.3,47.2-15.9,84c-1.6,36.9-2,48.6-1.8,142.5c0.2,93.9,0.6,105.7,2.4,142.6c1.8,36.8,7.6,61.9,16.2,83.9
					c8.9,22.7,20.7,42,40,61.2c19.2,19.2,38.6,31,61.3,39.8c22,8.5,47.1,14.3,83.9,15.9c36.9,1.6,48.7,2,142.5,1.8
					c93.9-0.2,105.7-0.6,142.6-2.3c36.8-1.8,61.9-7.7,83.9-16.2c22.7-8.9,42-20.7,61.2-40c19.2-19.2,31-38.6,39.7-61.3
					c8.5-22,14.3-47.1,15.9-83.9c1.6-36.9,2-48.7,1.8-142.6c-0.2-93.9-0.6-105.7-2.4-142.5c-1.7-36.8-7.6-61.9-16.2-83.9
					c-8.9-22.7-20.7-42-40-61.2c-19.2-19.2-38.6-31-61.3-39.7c-22-8.5-47.1-14.3-83.9-15.9c-36.9-1.6-48.7-2-142.6-1.8
					C255.4,4.4,243.7,4.8,206.8,6.6 M210.8,631.7c-33.7-1.5-52-7.1-64.2-11.8c-16.2-6.3-27.7-13.7-39.8-25.8
					c-12.1-12.1-19.6-23.6-25.9-39.7c-4.7-12.2-10.4-30.5-12-64.2c-1.7-36.4-2.1-47.4-2.3-139.7c-0.2-92.3,0.2-103.2,1.7-139.7
					c1.4-33.7,7.1-52,11.8-64.2c6.3-16.2,13.7-27.7,25.8-39.8c12.1-12.1,23.6-19.6,39.7-25.9c12.2-4.8,30.5-10.4,64.2-12
					c36.5-1.7,47.4-2.1,139.7-2.3c92.3-0.2,103.3,0.1,139.7,1.7c33.7,1.5,52,7,64.2,11.8c16.2,6.3,27.7,13.7,39.8,25.8
					c12.1,12.1,19.6,23.6,25.9,39.7c4.8,12.2,10.4,30.5,12,64.2c1.7,36.5,2.1,47.4,2.3,139.7c0.2,92.3-0.2,103.3-1.8,139.7
					c-1.5,33.7-7.1,52-11.8,64.2c-6.3,16.1-13.7,27.7-25.8,39.8c-12.1,12.1-23.6,19.6-39.7,25.9c-12.2,4.8-30.5,10.4-64.2,12
					c-36.5,1.7-47.4,2.1-139.7,2.3C258.2,633.6,247.3,633.3,210.8,631.7 M492.7,165.2c0,22.9,18.7,41.4,41.6,41.4
					c22.9,0,41.5-18.7,41.4-41.6c0-22.9-18.7-41.5-41.6-41.4C511.2,123.6,492.7,142.3,492.7,165.2 M172.4,350.3
					c0.2,98.1,79.8,177.4,177.9,177.2c98.1-0.2,177.4-79.8,177.2-177.9c-0.2-98-79.8-177.4-177.9-177.2
					C251.6,172.6,172.3,252.3,172.4,350.3 M234.7,350.2c-0.1-63.6,51.4-115.4,115-115.5c63.6-0.1,115.4,51.4,115.5,115
					c0.1,63.7-51.4,115.4-115.1,115.5C286.6,465.4,234.9,413.9,234.7,350.2"/>
			</defs>
			<clipPath id="SVGID_00000135658264073993127260000009119608288367261586_">
				<use xlink:href="#SVGID_1_"  style="overflow:visible;"/>
			</clipPath>
			<g style="clip-path:url(#SVGID_00000135658264073993127260000009119608288367261586_);">
				<g>
					<g>
						<defs>
							<rect id="SVGID_00000026162077628689065070000014689240916913302948_" x="-23.7" y="-22.9" width="746.9" height="746.9"/>
						</defs>
						<clipPath id="SVGID_00000131328372684676945810000009314894418301012668_">
							<use xlink:href="#SVGID_00000026162077628689065070000014689240916913302948_"  style="overflow:visible;"/>
						</clipPath>
						<g style="clip-path:url(#SVGID_00000131328372684676945810000009314894418301012668_);">
							<g>
								<g>
									<defs>
										
											<rect id="SVGID_00000041287508695187487090000012433708796427587207_" x="-26.8" y="-25.9" width="753.1" height="753.1"/>
									</defs>
									<clipPath id="SVGID_00000044893775149817413050000004331472418259152258_">
										<use xlink:href="#SVGID_00000041287508695187487090000012433708796427587207_"  style="overflow:visible;"/>
									</clipPath>
									
										<g transform="matrix(1 0 0 1 0 3.051758e-05)" style="clip-path:url(#SVGID_00000044893775149817413050000004331472418259152258_);">
										
											<image style="overflow:visible;enable-background:new    ;" width="2556" height="2554" xlink:href="B859A00E.jpg"  transform="matrix(0.2947 0 0 0.2947 -27.0416 -25.7558)">
										</image>
									</g>
								</g>
							</g>
						</g>
					</g>
				</g>
			</g>
		</g>
	</g>
</g>
</svg>
