<?xml version="1.0" encoding="utf-8"?>
<!-- Generator: Adobe Illustrator 25.4.1, SVG Export Plug-In . SVG Version: 6.00 Build 0)  -->
<svg version="1.1" id="Layer_1" xmlns="http://www.w3.org/2000/svg" xmlns:xlink="http://www.w3.org/1999/xlink" x="0px" y="0px"
	 viewBox="0 0 300 300" style="enable-background:new 0 0 300 300;" xml:space="preserve">
<style type="text/css">
	.st0{fill:#415429;}
	.st1{fill:#B70808;}
	.st2{fill:#333333;}
	.st3{fill:none;stroke:#333333;stroke-width:2;stroke-linecap:round;stroke-miterlimit:10;}
</style>
<g>
	<path class="st0" d="M150.01,108.01c-1.51-7.46-12.93-4.31-11.42,3.15c6.03,29.76,5.91,60.62-0.77,90.26
		c-6.27,27.83-17.34,55.05-14.92,84.08c0.63,7.54,12.48,7.61,11.84,0c-2.54-30.49,10.44-58.86,16.03-88.28
		C156.38,167.68,155.98,137.47,150.01,108.01z"/>
	<g>
		<path class="st1" d="M119.1,76.93c5.26,26.98-23.4,56.67-52.64,53.3c-34.22-3.95-56.22-18.03-53.96-47.38
			c2.07-26.89,23.58-54.51,51.33-56.59C93.18,24.06,113.46,48.03,119.1,76.93z"/>
		<path class="st1" d="M287.55,82.85c0,29.44-29.79,47.38-59.22,47.38s-47.38-23.86-47.38-53.3s24.52-50.67,53.96-50.67
			S287.55,53.41,287.55,82.85z"/>
		<path class="st1" d="M208.59,63.11c0,33.43-24.65,66.31-57.91,69.75c-38.17,3.95-63.17-29.74-63.17-63.17S115.15,5.2,148.05,9.15
			C181.25,13.13,208.59,29.67,208.59,63.11z"/>
	</g>
	<path class="st0" d="M141.47,207.87c0,0-18.42-39.48-65.8-28.95c0,0-14.48,5.26-23.69,3.95c0,0,2.63,31.82,35.53,42.89
		C120.42,236.82,141.47,207.87,141.47,207.87z"/>
	<path class="st0" d="M148.05,187.58c0,0,15.79-37.61,67.12-21.82c0,0,7.9,2.67,19.08-0.64c0,0-18.74,45.58-56.42,37.59
		S148.05,187.58,148.05,187.58z"/>
	<g>
		<path class="st2" d="M20.51,56.9c4.25-5.9,9.42-11.07,15.16-15.5c5.76-4.39,12.2-7.98,19.16-10.11c3.48-1.06,7.06-1.78,10.7-2.1
			c3.64-0.26,7.3-0.14,10.92,0.34c7.23,1.08,14.19,3.63,20.58,7.13l-0.8,0.16c3.16-3.92,6.78-7.34,10.69-10.43
			c3.91-3.08,8.16-5.74,12.66-7.92c8.97-4.35,19.02-6.67,29.04-6.2c5,0.24,9.95,1.07,14.77,2.35l3.57,1.13
			c0.59,0.19,1.19,0.37,1.78,0.58l1.74,0.69l3.47,1.39l3.37,1.61c8.94,4.4,17.06,10.24,24.53,16.74l-0.72-0.08
			c8.35-3.95,17.31-6.38,26.45-7.24c9.12-0.82,18.53,0.21,26.98,3.88c4.24,1.78,8.14,4.31,11.64,7.26c1.82,1.41,3.35,3.13,4.98,4.73
			c1.46,1.77,3.04,3.44,4.3,5.35c5.37,7.44,9.17,15.9,11.9,24.61l0.01,0.02l0,0.01c1.34,7.12,0.66,14.49-1.66,21.33
			c-1.17,3.41-2.83,6.66-4.85,9.65c-2.04,2.98-4.49,5.68-7.18,8.07c-1.32,1.24-2.79,2.28-4.22,3.39c-1.51,0.98-2.97,2.05-4.56,2.9
			c-3.09,1.86-6.4,3.29-9.73,4.66c-6.71,2.61-13.73,4.3-20.8,5.49l0.09-0.02c-4.27,0.94-8.49,0.73-12.66,0.05
			c-4.16-0.71-8.17-2.09-11.96-3.89l-2.8-1.45c-0.93-0.48-1.79-1.09-2.69-1.63c-1.82-1.05-3.44-2.38-5.13-3.62
			c-0.86-0.6-1.61-1.34-2.4-2.01l-2.36-2.07c-1.48-1.47-2.92-2.98-4.39-4.47l1.45-0.01c-5.61,6.04-12.14,10.98-19.32,14.89
			c-7.17,3.88-15.12,6.5-23.33,7.14c-4.1,0.29-8.23,0.07-12.28-0.59c-4.07-0.61-7.99-1.92-11.79-3.44
			c-7.55-3.2-14.38-7.85-20.43-13.28l1.5-0.17c-1.1,1.46-2.28,2.65-3.56,3.83c-1.26,1.17-2.61,2.23-4.01,3.22
			c-2.8,1.99-5.85,3.59-9.03,4.84c-6.36,2.5-13.23,3.6-20.01,3.4c-6.8-0.11-13.49-1.49-19.93-3.47c-6.44-2.01-12.62-4.75-18.57-7.86
			l0.04,0.02c-2.79-1.29-5.22-3.06-7.45-5.09c-2.21-2.03-4.15-4.36-5.71-6.91c-3.16-5.1-4.84-11.02-5.19-16.96
			c-0.38-5.95,0.42-11.92,1.88-17.66C15.87,67.84,18.01,62.29,20.51,56.9z M20.68,56.99c-2.45,5.37-4.55,10.94-5.99,16.68
			c-1.41,5.73-2.17,11.67-1.75,17.55c0.41,5.88,2.19,11.67,5.36,16.61c1.57,2.47,3.5,4.71,5.69,6.65c2.18,1.93,4.64,3.64,7.25,4.79
			l0.03,0.01l0.01,0.01c5.96,2.98,12.12,5.58,18.5,7.44c3.2,0.89,6.42,1.72,9.69,2.21c1.63,0.31,3.28,0.45,4.92,0.65
			c0.82,0.08,1.65,0.11,2.47,0.16l1.24,0.07l1.24,0.01c6.59,0.12,13.2-1.02,19.27-3.48c3.03-1.23,5.92-2.81,8.58-4.71
			c1.33-0.94,2.61-1.96,3.81-3.06c1.19-1.09,2.35-2.3,3.27-3.52l0.68-0.9l0.82,0.73c5.93,5.3,12.59,9.8,19.88,12.88
			c7.29,3.06,15.25,4.41,23.11,3.83c7.86-0.65,15.53-3.12,22.52-6.85c6.96-3.74,13.45-8.63,18.82-14.36l0.72-0.77l0.74,0.75
			c1.42,1.46,2.82,2.94,4.26,4.38l2.28,2.02c0.77,0.66,1.49,1.39,2.33,1.97c1.63,1.21,3.2,2.51,4.96,3.53
			c0.87,0.53,1.69,1.12,2.59,1.59l2.69,1.41c3.65,1.74,7.49,3.09,11.47,3.82c0.99,0.17,1.99,0.36,2.99,0.43
			c0.5,0.05,1,0.11,1.5,0.14l1.51,0.05c1.99,0.03,4.06-0.1,5.92-0.51l0.08-0.02l0.01,0c7-1.11,13.93-2.71,20.55-5.2
			c3.28-1.31,6.54-2.68,9.59-4.47c1.57-0.82,3-1.85,4.49-2.79c1.4-1.06,2.85-2.07,4.15-3.27c2.65-2.31,5.06-4.91,7.08-7.79
			c2.01-2.89,3.65-6.04,4.83-9.36c2.33-6.63,3.09-13.92,1.84-20.84l0.01,0.03c-2.68-8.67-6.42-17.08-11.71-24.46
			c-1.24-1.9-2.8-3.56-4.24-5.31c-1.61-1.59-3.14-3.28-4.94-4.66c-3.47-2.9-7.33-5.37-11.51-7.1c-8.34-3.56-17.62-4.57-26.61-3.61
			c-8.99,0.95-17.87,3.51-25.95,7.46l-0.39,0.19L201,37.73c-7.48-6.35-15.6-12-24.42-16.22l-3.31-1.57l-3.4-1.35l-1.7-0.67
			c-0.57-0.2-1.16-0.37-1.74-0.56l-3.49-1.09c-4.71-1.23-9.53-2.02-14.39-2.23c-9.71-0.38-19.48,1.68-28.27,5.89
			c-4.4,2.09-8.58,4.66-12.44,7.64c-3.87,2.95-7.53,6.29-10.62,10l-0.35,0.42l-0.45-0.26c-6.23-3.55-13.02-6.18-20.1-7.35
			c-3.55-0.53-7.15-0.7-10.74-0.51c-3.58,0.25-7.14,0.9-10.6,1.9c-3.47,0.98-6.82,2.37-10,4.06c-3.19,1.68-6.24,3.64-9.12,5.82
			C30.13,46.02,24.93,51.18,20.68,56.99z"/>
	</g>
	<path class="st3" d="M137.82,201.42c0,0-22.01-33.69-62.15-22.51c0,0-17.77,7.24-23.69,3.95c0,0,28.95,80.28,84.88,25.66"/>
	<g>
		<path class="st2" d="M142.89,132.84c1.17,8.34,1.51,16.77,1.44,25.19c-0.04,4.21-0.19,8.42-0.46,12.63
			c-0.29,4.2-0.72,8.4-1.23,12.58c-0.5,4.19-1.16,8.35-1.89,12.5c-0.73,4.15-1.68,8.26-2.67,12.36c-2,8.19-4.64,16.22-7.67,24.08
			l0.02-0.06c-2.46,9.06-4.45,18.28-5.92,27.57c-0.72,4.65-1.24,9.33-1.49,14.01c-0.23,4.67-0.23,9.44,0.94,13.91l-0.13-0.22
			c0.84,0.76,1.84,1.45,2.87,1.94c1.04,0.49,2.17,0.78,3.22,0.62c1.05-0.15,1.98-0.75,2.65-1.63c0.69-0.86,1.17-1.93,1.54-3.03
			l-0.03,0.29c-0.32-3.19-0.39-6.32-0.34-9.48c0.03-3.15,0.21-6.3,0.44-9.44c0.48-6.28,1.38-12.52,2.47-18.71
			c0.59-3.09,1.17-6.18,1.89-9.25c0.65-3.08,1.46-6.12,2.24-9.17c0.79-3.05,1.76-6.04,2.64-9.06c0.95-3,1.97-5.97,2.96-8.96
			l-0.03,0.12c1.33-6.42,2.33-12.97,3.28-19.5c0.93-6.53,1.68-13.1,2.23-19.68c0.31-3.29,0.52-6.58,0.76-9.88
			c0.16-3.3,0.39-6.6,0.46-9.9c0.27-6.6,0.25-13.22,0.13-19.83c0-0.06,0.04-0.1,0.1-0.1c0.05,0,0.1,0.04,0.1,0.09
			c0.39,6.61,0.74,13.23,0.67,19.86c-0.01,6.63-0.23,13.26-0.68,19.88c-0.44,6.62-1.07,13.22-1.89,19.81
			c-0.8,6.59-1.84,13.13-3.15,19.68l-0.01,0.04l-0.03,0.08c-0.97,2.97-1.97,5.92-2.9,8.9c-0.86,3-1.81,5.97-2.59,8.99
			c-0.8,3.01-1.64,6.02-2.31,9.07c-0.75,3.03-1.35,6.09-1.97,9.15c-1.16,6.13-2.07,12.3-2.68,18.51c-0.28,3.1-0.52,6.21-0.6,9.32
			c-0.09,3.1-0.12,6.25,0.11,9.3l0.01,0.17l-0.05,0.12c-0.43,1.18-0.99,2.35-1.84,3.37c-0.81,1.03-2.08,1.83-3.45,1.98
			c-1.37,0.16-2.68-0.24-3.81-0.8c-1.15-0.58-2.16-1.3-3.09-2.19l-0.1-0.09l-0.03-0.13c-1.11-4.71-0.95-9.49-0.72-14.19
			c0.27-4.72,0.89-9.4,1.58-14.07c0.68-4.67,1.51-9.31,2.43-13.93c0.92-4.63,1.87-9.24,2.98-13.84l0-0.02l0.01-0.04
			c2.82-7.89,5.1-15.95,7.09-24.08c1.89-8.15,3.48-16.37,4.6-24.67c0.55-4.15,1.02-8.31,1.35-12.48c0.36-4.17,0.63-8.35,0.78-12.54
			c0.27-8.37,0.26-16.77-0.46-25.13c-0.01-0.05,0.03-0.1,0.09-0.11C142.83,132.75,142.88,132.79,142.89,132.84z"/>
	</g>
	<path class="st3" d="M151.72,182.77c0,0,16.37-29.08,61.95-17.45c0,0,12.69,5.09,20.58-0.19c0,0-18.99,59.74-82.54,29.2"/>
</g>
</svg>
