<?xml version="1.0" encoding="utf-8"?>
<!-- Generator: Adobe Illustrator 27.9.0, SVG Export Plug-In . SVG Version: 6.00 Build 0)  -->
<svg version="1.1" id="Layer_1" xmlns="http://www.w3.org/2000/svg" xmlns:xlink="http://www.w3.org/1999/xlink" x="0px" y="0px"
	 width="444.8px" height="80px" viewBox="0 0 444.8 80" style="enable-background:new 0 0 444.8 80;" xml:space="preserve">
<style type="text/css">
	.st0{fill:#FFFFFF;}
</style>
<g>
	<path class="st0" d="M3.6,58l0.1-2.9c3.5-0.5,5.7-1.2,6.7-2.1c0.6-0.7,1.1-2.4,1.4-5.3l0.5-15l0.6-15.2C13,16.6,13,16,13,15.8
		c0-4-0.2-6.2-0.7-6.9C11.8,8.3,10,7.7,6.9,7.1C6.2,7,5.6,6.9,5.1,6.8c0-0.7,0-1.3,0-1.8V3.7c1-0.1,2.2-0.1,3.7-0.1L21,4
		c0.3,0,0.7,0.1,1.2,0.1l1.9,0.1c0.6,0.7,1,1.4,1.5,2.2c1,2,2.4,5.1,4.1,9l0.5,1.1l6.5,14.3c0.2,0.3,0.4,0.8,0.7,1.5
		c0.5,1,0.9,1.9,1.3,2.9s0.9,1.9,1.4,3s1,2.1,1.4,2.9c0.4-0.7,0.8-1.5,1.1-2.2c1.1-2.6,2.2-4.9,3.3-7.1c1.8-3.8,4.4-9.6,7.5-17.5
		c0.5-1.3,1.3-3.2,2.5-5.7s1.8-3.9,1.9-4c0.5-0.3,1-0.4,1.5-0.3c0.3,0,0.7,0,1.3,0C62.1,4,63.8,4,65.9,3.9c2.9,0,5.3-0.1,7.1-0.3
		c1.8-0.2,2.8-0.2,3-0.2c0.3,0,0.7,0,1,0.1c0,0.4,0,0.7,0,0.9l-0.1,1.3c0,0.3,0,0.6,0,1.1c-2.2,0.3-4.4,0.9-6.4,1.8
		c-1.1,0.6-1.7,1.3-1.7,2.1v0.6l0.7,12.9c0.1,1.2,0.3,7,0.7,17.5c0.1,2.3,0.3,5.3,0.6,8.9c0,0.3,0.1,0.7,0.1,1.1
		c0,0.5,0.1,0.9,0.4,1.3c0.3,0.2,2.8,1,7.5,2.4c0,0.5,0,0.8,0,1c0,0.6,0,1.2,0,1.8c-0.8,0-2.7-0.2-5.7-0.5c-2.8-0.3-5.7-0.5-8.6-0.5
		c-4.1,0-8,0.2-11.8,0.5c-0.5,0.1-1,0.1-1.5,0.1l0.1-2.9c1.5-0.5,3-0.9,4.6-1.1c1,0,1.9-0.4,2.6-1.1c0.4-0.5,0.5-2,0.5-4.5
		c0-0.9,0-1.7,0-2.4c-0.1-2.9-0.2-7-0.2-12.3l-0.7-14.8c-0.1-2.1-0.2-3.6-0.3-4.4L47.2,38.4c-0.3,0.6-0.6,1.4-1.1,2.4
		c-0.6,1.4-1.1,2.3-1.3,2.8c-2.2,5.2-3.7,9.2-4.5,11.9c-0.2,0.7-0.6,1.6-1,2.7h-3.2l-2.3-6.4c-0.7-1.7-1.8-4.2-3.4-7.7
		c-1-2-1.7-3.6-2.2-4.8c-0.3-0.5-0.4-0.9-0.5-1.1l-0.5-1c0-0.1-0.1-0.3-0.1-0.4l-6.3-13.5l-4-8.3l-0.3,19.9l-0.3,12.9
		c0,2.1,0.4,3.6,1.2,4.6c0.8,0.9,2.5,1.7,5.1,2.3l2,0.5v3.1c-1.6,0-3.4-0.1-5.2-0.4c-2.5-0.2-4.9-0.3-7.4-0.3
		C11.2,57.6,8.5,57.7,3.6,58"/>
	<path class="st0" d="M119.6,50.1l1,0.6c0.2,0.2,0.4,0.4,0.5,0.7v0.2c-0.7,2.5-1.6,4.2-2.6,5.2c-1.1,1-2.6,1.5-4.1,1.4
		c-1.5,0-3-0.4-4.3-1.4c-1.5-1.3-2.6-3-3.3-4.8c-1.2,2.1-2.9,3.8-5.1,4.8c-2.5,1.2-5.3,1.7-8,1.6c-2.9,0-5.1-0.6-6.4-1.8
		c-1.4-1.2-2.1-3-2.1-4.8c0-1,0.2-1.9,0.6-2.8c0.5-1.1,1.2-2,2-2.8c1.3-1.2,2.8-2.3,4.4-3.1c0.3-0.2,1.4-0.6,3.2-1.4l10.5-4.2
		c0.1-1.1,0.1-2.1,0.1-3.2c0-3.8-0.5-6.4-1.4-7.7c-0.7-0.9-1.8-1.4-2.9-1.3c-1.3,0-2.6,0.3-3.9,0.8c-1,0.4-1.9,1.1-2.6,2.1
		c-0.5,1.1-0.9,2.3-1,3.5c-0.1,0.7-0.2,1.5-0.5,2.1c-0.6,0.7-1.4,1.2-2.3,1.5c-1.1,0.4-1.9,0.7-2.2,0.9c-1.1,0.6-2.3,1-3.6,1.1
		c-0.4-0.4-0.6-0.9-0.6-1.4c0-1.4,0.3-2.9,1-4.1c1.2-1.8,2.8-3.4,4.6-4.7c1.7-1.4,3.6-2.4,5.7-3.2c2.9-0.8,5.8-1.2,8.8-1.2
		c2-0.1,4,0.4,5.8,1.2c1.5,0.8,2.7,2.1,3.4,3.7c0.6,1.6,0.9,4.6,0.9,8.8l-0.1,6.9l0.1,5.1v1.3c-0.1,0.8,0.1,1.7,0.5,2.4
		c0.3,0.4,0.7,0.7,1.2,0.7c0.3,0,0.6-0.1,0.8-0.3l1.3-2L119.6,50.1z M105.8,40.3c-1.9,0.7-3.7,1.6-5.4,2.7c-1.7,0.9-3.1,2.2-4.2,3.8
		c-0.6,1-0.9,2.2-0.8,3.4c0,1.1,0.4,2.2,1.1,3c0.6,0.7,1.5,1.2,2.5,1.2c1.5,0,2.9-0.4,4-1.4c1.1-0.7,2-1.7,2.6-2.9
		c0.4-2,0.5-4,0.4-6.1C106,42.8,105.9,41.6,105.8,40.3"/>
	<path class="st0" d="M124.4,26.1c2.6-1,5-2.4,7.2-4.1c1.9-1.9,3.5-4.1,4.7-6.6h2.4c0.3,0.7,0.4,1.5,0.4,2.3c0,1.5,0,2.6,0,3.4
		l-0.1,2.5c0,0.1,0,0.5,0,1h1c0.1,0,1.5-0.1,4-0.2c0.2,0,1.2,0,3.1-0.1c0.2,0.7,0.2,1.3,0.3,2c0,0.8-0.1,1.5-0.3,2.2
		c-0.7,0.1-1.4,0.2-2.1,0.3c-0.5,0-0.9-0.1-1.3-0.2h-2.2h-0.8l-2,0.1l-0.1,16.1c-0.1,1.9,0,3.9,0.2,5.8c0.2,0.8,0.5,1.6,1,2.2
		c0.7,0.3,1.4,0.5,2.1,0.5c0.6,0,1.1,0,1.7-0.2c0.7-0.3,1.3-0.7,1.8-1.2c0.2-0.1,0.4-0.3,0.8-0.6c0.6,0.5,1.2,1,1.6,1.6l0.2,0.5
		c-1,1.6-2.4,2.8-4.1,3.6c-1.8,0.9-3.7,1.3-5.7,1.3c-2.4,0.1-4.7-0.8-6.3-2.5c-1.6-1.6-2.4-4.2-2.4-7.7l0.2-7.4v-12l-1.3-0.1l-3,0.1
		l-0.5-0.2c-0.2-0.2-0.2-0.5-0.2-0.7C124.3,27.8,124.4,27.2,124.4,26.1"/>
	<path class="st0" d="M150.2,58l-0.1-2.7l4.7-0.6c0.6-0.1,1.1-0.4,1.5-0.9c0.3-0.8,0.5-1.7,0.4-2.5v-0.5c0-0.3,0-0.9,0.1-1.8
		c0-0.9,0.1-1.7,0.1-2.3c0-0.5,0-1.6-0.1-3.1l0.1-2.1l-0.1-2l0.1-6.9c0-0.9-0.1-1.8-0.3-2.7c-0.4-0.5-1-0.9-1.7-1.1
		c-1.4-0.4-2.8-0.6-4.3-0.7v-2.4c2.6-0.1,5.2-0.7,7.6-1.8c1.8-0.9,3.4-2.1,4.8-3.6h2.8c0.1,3.5,0.2,8,0.2,13.5l-0.3,17.1
		c0,1.1,0,2.1,0.2,3.2c1.4,0.4,2.8,0.7,4.2,0.9c0.6,0.1,1.2,0.2,1.8,0.4l-0.1,2.6c-0.8,0-1.3,0-1.7,0s-1.1,0-1.9-0.1
		c-2.9-0.1-6.7-0.2-11.5-0.2c-1.4,0-2.7,0-4,0.1C151.5,58,150.6,58,150.2,58 M156.1,7.8c0-1.4,0.5-2.7,1.5-3.7s2.4-1.5,3.8-1.4
		c1.5,0,3,0.5,4.1,1.5c1,0.9,1.6,2.1,1.6,3.5c0,1-0.2,2-0.7,2.9c-0.4,1-1.2,1.8-2.1,2.3c-0.9,0.6-1.9,0.9-2.9,0.9
		c-1.4,0-2.8-0.7-3.7-1.7C156.6,10.9,156,9.4,156.1,7.8"/>
	<path class="st0" d="M173.3,56.1c0.7-0.5,1.6-0.7,2.5-0.8c1.9-0.2,3.1-0.5,3.3-0.9c0.6-0.7,0.8-2.2,0.8-4.4V38.1l-0.1-2.8v-8.5
		l-0.1-9.7v-1.7c0.1-1.7-0.1-3.4-0.6-5.1c-1-0.6-2.1-0.9-3.2-0.9c-0.6,0-1.3-0.1-1.9-0.2c-0.1-0.7-0.1-1.2-0.1-1.6
		c0-0.3,0-0.5,0.1-0.8c2.4-0.3,4.7-0.9,6.9-1.7c1.9-0.7,3.8-1.6,5.5-2.7h1.2c0.2,0,0.6,0,1.1,0c0.2,9.7,0.3,16.3,0.3,19.9
		c0,1.1,0,1.9-0.1,2.6v0.3L189,26v18.6l0.1,6.1v1c-0.1,0.9,0.1,1.8,0.6,2.6c0.6,0.5,1.4,0.7,2.1,0.7c0.6,0.1,1.7,0.2,3.5,0.4
		c0.1,0.5,0.2,0.9,0.2,1.4c0,0.4,0,0.8-0.1,1.2l-3.3-0.2c-1.8-0.1-4.2-0.2-7-0.2h-1.6c-1.6,0-3.9,0.1-6.9,0.4h-3.1L173.3,56.1z"/>
	<path class="st0" d="M206.5,25.8c1.2-0.9,2.6-1.6,4-2.1c1.8-0.5,3.6-0.8,5.4-1h2.4c3.2,0,6.3,1.2,8.8,3.2l0.1-1v-2.8l0.2-4.5
		c0-4.7-0.4-7.7-1.1-9c-0.5-0.8-1.3-1.2-2.2-1.2s-1.7-0.2-2.5-0.5v-2c0.7-0.2,1.4-0.3,2.1-0.3c1.7-0.2,3.3-0.4,4.9-0.9l1.4-0.3
		l4.2-1c0.5-0.1,1-0.2,1.6-0.3c0.2,0,0.5,0,0.7,0.1c0.1,0.4,0.2,0.9,0.3,1.3v0.6v0.8c0,0.8,0,2.9,0.1,6.3v2.3v1.2v2.1l0.1,4.4
		l-0.1,2.6c-0.1,1.1-0.1,2.9-0.1,5.3c0,0.4,0,0.7,0,1.1v1.6c0,0.5,0,0.8,0,1c0,0.6,0.1,1.2,0.1,1.8v2.3v0.9
		c-0.1,0.8-0.1,1.9-0.1,3.4s0,2.8,0.1,4c0,0.5,0,0.9,0,1.3v3.2c0,1,0,2.2,0.1,3.6c1.2,0.5,2.4,0.7,3.7,0.7c0.6,0,1.1,0.1,1.6,0.2
		c0.1,0.3,0.2,0.6,0.2,0.9c0,0.4-0.1,0.8-0.3,1.1c-1.2,0.3-2.4,0.5-3.6,0.6c-3.8,0.5-6.6,1.1-8.2,2c-0.5,0.3-1,0.6-1.6,0.7
		c-0.4,0-0.7,0-1.1-0.1c0-0.5,0-0.8,0-1c0-1.2,0-2.5-0.1-3.7c-0.4,0.2-0.9,0.5-1.6,0.9c-1.6,1-3.3,1.8-5.1,2.4
		c-1.7,0.5-3.5,0.7-5.3,0.7c-2.9,0.1-5.9-0.6-8.4-2c-2.8-1.6-5.1-4.1-6.5-7.1c-1.2-2.9-1.8-5.9-1.8-9
		C198.7,34.6,201.3,29.8,206.5,25.8 M219.5,53.5c0.6,0.1,1.1,0.1,1.5,0.1c1,0,2-0.2,3-0.6c1.2-0.4,2.3-1,3.3-1.7c0-0.9,0-1.5,0-1.7
		c0-8.9-0.1-14.2-0.4-16.1c-0.2-2.2-1.2-4.2-2.8-5.6c-1.5-1.3-3.5-2-5.5-2c-1.2,0-2.4,0.2-3.5,0.7c-1,0.4-2,1.1-2.7,1.9
		c-1,1.2-1.8,2.7-2.4,4.2c-0.7,2-1.1,4-1.1,6.1c0,4.6,1,8.1,2.9,10.5C213.7,51.7,216.5,53.2,219.5,53.5"/>
	<path class="st0" d="M281.8,50.1l1,0.6c0.2,0.2,0.4,0.4,0.5,0.7v0.2c-0.7,2.5-1.5,4.2-2.6,5.2s-2.6,1.5-4.1,1.4
		c-1.5,0-3-0.4-4.3-1.4c-1.5-1.3-2.6-3-3.3-4.8c-1.2,2.1-2.9,3.8-5.1,4.8c-2.5,1.2-5.3,1.7-8,1.6c-2.9,0-5.1-0.6-6.4-1.8
		c-1.4-1.2-2.1-3-2.1-4.8c0-1,0.2-1.9,0.6-2.8c0.5-1.1,1.1-2,2-2.8c1.3-1.2,2.8-2.3,4.4-3.1c0.3-0.2,1.4-0.6,3.2-1.4l10.5-4.2
		c0.1-1.1,0.1-2.1,0.1-3.2c0-3.8-0.5-6.4-1.4-7.7c-0.7-0.9-1.8-1.4-2.9-1.3c-1.3,0-2.6,0.3-3.9,0.8c-1,0.4-1.9,1.1-2.6,2.1
		c-0.5,1.1-0.9,2.3-1,3.5c-0.1,0.7-0.2,1.5-0.5,2.1c-0.6,0.7-1.4,1.2-2.3,1.5c-1.1,0.4-1.9,0.7-2.3,0.9c-1.1,0.6-2.3,1-3.6,1.1
		c-0.4-0.4-0.6-0.9-0.6-1.4c0-1.4,0.3-2.9,1-4.1c1.2-1.8,2.8-3.4,4.6-4.7c1.7-1.4,3.6-2.4,5.7-3.2c2.9-0.8,5.8-1.2,8.8-1.2
		c2-0.1,4,0.4,5.8,1.2c1.5,0.8,2.7,2.1,3.4,3.7c0.6,1.6,0.9,4.6,0.9,8.8l-0.1,6.9l0.1,5.1v1.3c-0.1,0.8,0.1,1.7,0.5,2.4
		c0.3,0.4,0.7,0.7,1.2,0.7c0.3,0,0.6-0.1,0.8-0.3l1.3-2L281.8,50.1z M268,40.3c-1.9,0.7-3.7,1.6-5.4,2.7c-1.7,0.9-3.1,2.2-4.2,3.8
		c-0.6,1-0.9,2.2-0.8,3.4c0,1.1,0.3,2.2,1.1,3c0.6,0.7,1.6,1.2,2.5,1.2c1.5,0,2.9-0.4,4-1.4c1.1-0.7,2-1.7,2.6-2.9
		c0.4-2,0.5-4,0.4-6.1C268.2,42.8,268.1,41.6,268,40.3"/>
	<path class="st0" d="M356,51.8c0.6-0.3,1.3-0.5,2-0.7c0.9-0.1,1.8-0.3,2.7-0.6c0.4-0.2,0.7-0.5,0.8-0.9c0.2-1.2,0.3-2.5,0.3-3.7
		v-3.7v-3l-0.1-4.4v-2.7c0-1.5-0.1-2.9-0.4-4.3c-0.2-0.5-0.6-1-1.1-1.3c-1.2-0.8-2.6-1.3-4-1.6v-2c0.3-0.1,0.7-0.2,1-0.2
		s1.4-0.3,3.4-0.8c1.5-0.6,2.5-1,3-1.2c0.1-0.1,0.4-0.2,0.7-0.4c0.3-0.3,0.7-0.6,1.1-0.8c1.1-0.9,2.2-1.9,3-3.1l2.3-0.2l-0.1,4.8
		c-0.1,0.4-0.1,0.8-0.1,1.1c0,0.2,0,0.9,0.1,1.9c1.9-1.7,4-3.1,6.3-4.2c2.2-1,4.6-1.5,7.1-1.6c2.5,0,4.9,0.6,6.9,2
		c1.8,1,3.1,2.6,3.9,4.5c0.6,1.7,0.9,5.2,0.9,10.4l-0.2,13.7c0,0.6,0.1,1.1,0.3,1.6c0.7,0.3,1.5,0.5,2.3,0.6l2.1,0.4
		c0.3,0.4,0.4,0.9,0.4,1.3c0,0.3,0,0.8,0,1.4l-8.2-0.6l-2.4,0.1h-1.9l-5.5,0.4h-1.4c0-0.4,0-0.6,0-0.8c0-0.5,0-1.1,0.1-1.6
		c0.4-0.1,1.4-0.2,2.9-0.4c0.5-0.1,0.9-0.2,1.4-0.3c0.6-0.2,0.9-0.4,1-0.7c0.3-0.9,0.4-1.8,0.3-2.7c0-2.4,0-4.2,0-5.4v-4.9
		c0-5.9-0.4-9.6-1.1-11.1c-0.8-1.9-2.7-3.2-4.8-3.2c-1.7,0-3.4,0.4-4.9,1.2c-1.9,1-3.6,2.2-5.2,3.6l-0.1,0.7l0.1,2.6l-0.1,2.8
		l0.2,6.7l-0.1,1c0,4.6,0.2,7.2,0.6,7.7s1.8,1.2,4.2,2c0.1,0.3,0.1,0.7,0.1,1c0,0.5-0.1,1.1-0.3,1.6c-0.9,0-1.6,0-2.2,0
		c-0.9,0-1.9-0.1-2.8-0.3l-4.5-0.1c-2.2,0-5.5,0.1-9.7,0.3c-0.1-0.3-0.2-0.6-0.2-0.9C355.9,52.9,355.9,52.4,356,51.8"/>
	<path class="st0" d="M399.7,20c0.8-0.1,1.6-0.2,2.4-0.2c0.3,0,0.7,0,1.1,0c2.5,0.2,4.6,0.3,6.2,0.3h2.2l6-0.4
		c0.2,0.2,0.4,0.3,0.6,0.6c-0.1,1.2-0.2,2-0.2,2.4c-0.4,0.1-0.7,0.1-1,0.2c-0.6,0.1-1.1,0.2-1.4,0.2c-0.3,0.1-0.6,0.1-1,0.2
		s-0.7,0.3-0.7,0.6c0.2,0.7,0.3,1.2,0.5,1.7l2,4.1c1.6,3.9,3.2,7.6,4.9,10.9l2.4,4.8c0.2-0.3,1.2-3.1,3.2-8.3
		c2.4-6.1,3.7-9.6,3.9-10.4c0.1-0.4,0.2-0.7,0.2-1.1c0-0.5-0.1-0.9-0.2-1.4c-0.5-0.4-1-0.7-1.5-0.9c-0.9-0.2-1.8-0.4-2.7-0.4
		l-1.3-0.3l-0.1-0.6c0-0.2,0-0.4,0-0.6c0-0.4,0.1-0.7,0.1-1.1c0.8-0.1,1.4-0.1,1.8-0.1l3.4,0.2l2.3,0.1c1.7-0.1,3.3-0.2,5-0.4
		c1.5-0.2,2.6-0.3,3.3-0.3c0.1,0.7,0.1,1.2,0.1,1.6c0,0.2,0,0.4,0,0.7c-0.5,0.3-1.1,0.5-1.7,0.6c-1,0.3-1.9,0.5-2.6,0.7
		c-0.3,0.2-0.6,0.5-0.8,0.8c-0.5,1.1-1.4,3.4-2.9,7l-3,8.1l-7,16.7l-4.8,11.1c-1,2-2.2,3.9-3.7,5.5c-0.5,0.6-1.1,1-1.8,1.3
		c-1.2,0.5-2.6,0.7-3.9,0.7c-0.1,0-0.9-0.1-2.3-0.3c-1.2-0.3-2.2-0.9-3-1.8c-0.6-0.6-0.9-1.3-0.9-2.1c0-1.6,0.8-3.2,2-4.3
		c0.8-0.6,1.7-0.9,2.6-1.1c1.6,0.2,3.2,0.9,4.4,2c0.5,0.5,1.2,0.9,1.9,1c0.5,0,0.9-0.3,1.1-0.8c1.8-3.3,3.3-6.6,4.7-10.1L411.7,40
		c-2.9-6.9-5.1-11.7-6.7-14.4c-0.4-0.9-1-1.7-1.7-2.5c-0.5-0.3-1-0.5-1.5-0.7c-0.4-0.1-0.9-0.3-1.3-0.5
		C399.9,21.2,399.8,20.6,399.7,20"/>
	<path class="st0" d="M314.1,40.7c0.9-5.1-0.4-7.1-2.5-7.5c-2.1-0.5-4.3,0.7-6.2,5.3c-2.1,5.1,0.8,10.4,1.4,13l0.6-2l-0.5,1.9
		C308.7,49.5,313.1,46,314.1,40.7"/>
	<path class="st0" d="M322.6,56c5-1.5,6.1-3.6,5.5-5.7c-0.5-2.1-2.6-3.5-7.6-3c-5.5,0.5-8.9,5.5-10.9,7.2l2-0.3l-2,0.4
		C312.3,55.4,317.4,57.6,322.6,56"/>
	<path class="st0" d="M314.1,70.1c3.9,3.4,6.3,3.3,7.7,1.7c1.5-1.5,1.6-4.1-1.4-8c-3.3-4.4-9.4-4.6-11.9-5.4l1.4,1.5l-1.4-1.4
		C309.1,61,309.9,66.5,314.1,70.1"/>
	<path class="st0" d="M306.1,72.3c-1.6,5-3.7,6.1-5.7,5.4c-2.1-0.5-3.5-2.6-2.9-7.6c0.6-5.5,5.6-8.8,7.4-10.8l-0.4,2l0.5-2
		C305.6,62,307.8,67.1,306.1,72.3"/>
	<path class="st0" d="M288.8,54.2c-5,1.4-6.2,3.5-5.6,5.5c0.5,2.1,2.5,3.6,7.5,3.2c5.5-0.3,9-5.3,11.1-6.9l-2,0.3l2-0.4
		C299.1,55.2,294,52.8,288.8,54.2"/>
	<path class="st0" d="M290.6,47.9c-3.7-3.7-3.8-6.1-2.3-7.6c1.4-1.6,3.9-1.9,8.1,0.8c4.7,3,5.3,9,6.3,11.4l-1.6-1.2l1.5,1.3
		C300.1,52.2,294.6,51.8,290.6,47.9"/>
	<path class="st0" d="M308.6,57.5c-1.2,1.6-3.5,1.9-5.1,0.7s-1.9-3.5-0.7-5.1c1.2-1.6,3.5-1.9,5.1-0.7
		C309.4,53.6,309.8,55.9,308.6,57.5L308.6,57.5"/>
</g>
</svg>
