<?xml version="1.0" encoding="utf-8"?>
<!-- Generator: Adobe Illustrator 27.9.0, SVG Export Plug-In . SVG Version: 6.00 Build 0)  -->
<svg version="1.1" id="Layer_1" xmlns="http://www.w3.org/2000/svg" xmlns:xlink="http://www.w3.org/1999/xlink" x="0px" y="0px"
	 width="449px" height="308px" viewBox="0 0 449 308" style="enable-background:new 0 0 449 308;" xml:space="preserve">
<style type="text/css">
	.st0{fill:#FFFFFF;}
	.st1{fill:none;stroke:#FFFFFF;stroke-width:1.5;stroke-linecap:round;stroke-linejoin:round;stroke-dasharray:5;}
</style>
<path class="st0" d="M1063.4,37.8v2.5h2.5v-2.5H1063.4z M1063.4-57.5v2.5h2.5v-2.5H1063.4z M1121.6-57.5v2.5h2.5v-2.5H1121.6z
	 M1121.6-45v2.5h2.5V-45H1121.6z M1074.7-47.5v2.5h2.5v-2.5H1074.7z M1074.7-13.7v2.5h2.5v-2.5H1074.7z M1117.4-16.2v2.5h2.5v-2.5
	H1117.4z M1117.4-3.7v2.5h2.5v-2.5H1117.4z M1074.7-6.2v2.5h2.5v-2.5H1074.7z M1077.2,37.8v2.5h2.5v-2.5H1077.2z M1063.4-55v92.8h5
	V-55H1063.4z M1065.9-57.5v5h55.6v-5H1065.9z M1074.7-47.5v2.5h2.5v-2.5H1074.7z M1074.7-13.7v2.5h2.5v-2.5H1074.7z M1074.7-6.2v2.5
	h2.5v-2.5H1074.7z M1119.1-55v10h5v-10H1119.1z M1074.7-3.7h2.5v-2.5h-2.5V-3.7z M1074.7-11.2h2.5v-2.5h-2.5V-11.2z M1074.7-45h2.5
	v-2.5h-2.5V-45z M1077.2-47.5v5h44.4v-5H1077.2z M1074.7-45v31.4h5V-45H1074.7z M1077.2-16.2v5h40.2v-5H1077.2z M1114.9-13.7v10h5
	v-10H1114.9z M1077.2-6.2v5h40.2v-5H1077.2z M1074.7-3.7v41.5h5V-3.7H1074.7z M1065.9,35.3v5h11.2v-5H1065.9z M1133,37.8v2.5h1.8
	l0.6-1.7L1133,37.8z M1118.9,36.9l-1.2,3.4h3.6v-2.5L1118.9,36.9z M1153.6-57.5l-0.6,1.6l2.4,0.9v-2.5H1153.6z M1168.7-57.5h-1.8
	v2.5l2.4-0.9L1168.7-57.5z M1203.3,36.9l-2.3,0.9v2.5h3.6L1203.3,36.9z M1186.8,38.6l0.6,1.7h1.8v-2.5L1186.8,38.6z M1163.2-42.8
	h-1.8v2.5l2.4-0.8L1163.2-42.8z M1159-42.8l-0.6,1.7l2.4,0.8v-2.5H1159z M1134.9-1v2.5h2.5V-1H1134.9z M1184.9-1v2.5h2.5V-1H1184.9z
	 M1121.3,35.3v5h11.8v-5H1121.3z M1155.3-55l-2.4-0.9l-34.1,92.8l2.4,0.9l2.3,0.9l1.2-3.4l10-27.4l2.3-6.4h0.2V1.1l0.8-2.1
	l18.9-51.5l0.6-1.6L1155.3-55z M1155.3-57.5v5h11.6v-5H1155.3z M1137.4,1.5V4h2.5V1.5H1137.4z M1169.3-55.8l-2.4,0.9l-2.3,0.9
	l0.6,1.6L1184.1-1h0l0.8,2.5h0l2.5,6.4l10,27.3l1.2,3.4l2.3-0.9v0l2.3-0.9L1169.3-55.8z M1163.8-41.1l-0.6-1.7h-4.2l-0.6,1.7
	L1144.1-1l-1.8,5h5.3l1.8-5l11.7-32.9L1172.8-1l1.8,5h5.3l-1.8-5L1163.8-41.1z M1137.4,4h2.5V1.5h-2.5V4z M1189.2,35.3v5h11.8v-5
	H1189.2z M1191,35.3l-7.6-21.3l-0.9-2.5l-0.2-0.5l-0.7-2l0,0l-1.8-5l-1.8-5l-14.3-40.2l-2.4,0.8l-0.4,0.1l-0.4,0.1l-1.6,0.6l2,5.6
	L1172.8-1l1.8,5l1.8,5l1.8,5l8.7,24.6l2.4-0.8v0l2.4-0.8L1191,35.3z M1160.8-42.8v5h0.7v-5H1160.8z M1161.5-40l-0.4-0.1l-0.4-0.1v0
	l-2.4-0.8L1144.1-1l-1.8,5l-1.8,5h-0.7v2l-0.2,0.5l-0.9,2.5l-7.6,21.3l-0.6,1.7l2.4,0.8l2.3,0.8l8.7-24.6l1.8-5l1.8-5l1.8-5
	l11.7-32.9l2-5.6L1161.5-40z M1137.4-1v2.1l0.8-2.1H1137.4z M1137.4,1.5V4h2.5V1.5H1137.4z M1178.1-1l-14.3-40.2l-2.4,0.8l-0.4,0.1
	l-0.4,0.1l-1.6,0.6l2,5.6L1172.8-1h-28.7l-1.8,5h37.5L1178.1-1z M1182.4,11v0.5h0.2L1182.4,11z M1172.8-1h-23.4l-1.8,5h26.9
	L1172.8-1z M1182.5,11.5l-0.2-0.5l-0.7-2l0,0l-1.8-5h-5.3l1.8,5h-30.4l1.8-5h-5.3l-1.8,5h-0.7v2l-0.2,0.5l-0.9,2.5h44.6L1182.5,11.5
	z M1172.8-1h-23.4l-1.8,5h26.9L1172.8-1z M1134.9,1.5v6.4l2.3-6.4H1134.9z M1137.4,1.5V4h2.5V1.5H1137.4z M1139.7,11.5h0.2V11
	L1139.7,11.5z M1212.9-57.5v2.5h2.5v-2.5H1212.9z M1230.5-57.5h-1.7v2.5l2.3-1L1230.5-57.5z M1258.1,23l0.6,1.6h1.7V22L1258.1,23z
	 M1261.5,22v2.5h1.7l0.6-1.6L1261.5,22z M1291.3-57.5l-0.6,1.5l2.3,1v-2.5H1291.3z M1306.4-57.5v2.5h2.5v-2.5H1306.4z M1306.4,37.8
	v2.5h2.5v-2.5H1306.4z M1293.4,37.8v2.5h2.5v-2.5H1293.4z M1295.9-35.2v2.5h2.5v-2.5H1295.9z M1293.3-35.2l-0.6,1.5l2.3,1v-2.5
	H1293.3z M1266,37.8v2.5h1.7l0.6-1.5L1266,37.8z M1253.5,38.7l0.6,1.5h1.7v-2.5L1253.5,38.7z M1228.5-35.2h-1.7v2.5l2.3-1
	L1228.5-35.2z M1223.4-35.2v2.5h2.5v-2.5H1223.4z M1225.9,37.8v2.5h2.5v-2.5H1225.9z M1212.9,37.8v2.5h2.5v-2.5H1212.9z
	 M1215.4-57.5v5h13.4v-5H1215.4z M1260.9,16.8l-29.8-72.7l-2.3,1l-2.3,0.9l0.6,1.6l30.9,75.4l2.3-0.9l0.5-0.2l0.6-0.2l1.2-0.5
	L1260.9,16.8z M1260.4,19.5v5h1.1v-5H1260.4z M1293-55l-2.3-1l-29.8,72.7l-1.8,4.3l1.2,0.5l0.5,0.2l0.6,0.2l2.3,0.9l30.9-75.4
	l0.6-1.6L1293-55z M1293-57.5v5h13.4v-5H1293z M1228.5-35.2h-5.1v2.5h3.4l2.3-1L1228.5-35.2z M1261.5,22l-0.6-0.2l-0.5,0.2l-2.3,0.9
	l0.6,1.6h4.5l0.6-1.6L1261.5,22z M1293.3-35.2l-0.6,1.5l2.3,1h3.4v-2.5H1293.3z M1303.9-55v92.8h5V-55H1303.9z M1293.3-35.2
	l-0.6,1.5l2.3,1h3.4v-2.5H1293.3z M1260.9,21.8l-0.5,0.2l-2.3,0.9l0.6,1.6h4.5l0.6-1.6l-2.3-0.9L1260.9,21.8z M1223.4-35.2v2.5h3.4
	l2.3-1l-0.6-1.5H1223.4z M1295.9,35.3v5h10.5v-5H1295.9z M1293.4-32.7v70.5h5v-70.5H1293.4z M1295-35.2v5h0.9v-5H1295z M1295.9-32.3
	l-0.9-0.4l-2.3-1l-28.4,68.9l-0.6,1.5l2.3,1l2.3,1l25.1-61l3.9-9.5L1295.9-32.3z M1255.8,35.3v5h10.1v-5H1255.8z M1257.5,35.3
	l-28.4-68.9l-2.3,1l-0.9,0.4l-1.4,0.6l3.9,9.5l25.1,61l2.3-1l2.3-1L1257.5,35.3z M1225.9-35.2v5h0.9v-5H1225.9z M1223.4-32.7v70.5h5
	v-70.5H1223.4z M1215.4,35.3v5h10.5v-5H1215.4z M1212.9-55v92.8h5V-55H1212.9z M1340.2-57.5v2.5h2.5v-2.5H1340.2z M1340.2,37.8v2.5
	h2.5v-2.5H1340.2z M1326.4,37.8v2.5h2.5v-2.5H1326.4z M1326.4-57.5v2.5h2.5v-2.5H1326.4z M1337.7-55v92.8h5V-55H1337.7z
	 M1328.9,35.3v5h11.2v-5H1328.9z M1326.4-55v92.8h5V-55H1326.4z M1328.9-57.5v5h11.2v-5H1328.9z M1360.2,37.8v2.5h2.5v-2.5H1360.2z
	 M1360.2-57.5v2.5h2.5v-2.5H1360.2z M1373.9-57.5v2.5h2.5v-2.5H1373.9z M1371.4,27.8v2.5h2.5v-2.5H1371.4z M1417,25.3v2.5h2.5v-2.5
	H1417z M1417,37.8v2.5h2.5v-2.5H1417z M1360.2-55v92.8h5V-55H1360.2z M1362.7-57.5v5h11.2v-5H1362.7z M1371.4-55v82.8h5V-55H1371.4z
	 M1373.9,25.3v5h43.1v-5H1373.9z M1371.4,27.8v2.5h2.5v-2.5H1371.4z M1414.5,27.8v10h5v-10H1414.5z M1371.4,30.3h2.5v-2.5h-2.5V30.3
	z M1362.7,35.3v5h54.4v-5H1362.7z M1417.6-57.5l2.3,3.8l2.1-1.3v-2.5H1417.6z M1436.4-57.5h-1.4v2.5l2.2-1.3L1436.4-57.5z
	 M1458.5-10.4l0.7,1.2h1.4v-2.5L1458.5-10.4z M1461.8-11.7v2.5h1.4l0.7-1.2L1461.8-11.7z M1486.1-57.5l-0.7,1.2l2.2,1.3v-2.5H1486.1
	z M1500.4-57.5v2.5l2.1,1.3l2.3-3.8H1500.4z M1464.7-1.8l-0.4,0.6v0.7h2.5L1464.7-1.8z M1466.8,37.8v2.5h2.5v-2.5H1466.8z
	 M1453.1,37.8v2.5h2.5v-2.5H1453.1z M1457.8-1.8l-2.1,1.3h2.5v-0.7L1457.8-1.8z M1422.1-57.5v5h12.9v-5H1422.1z M1461.2-15.7
	l-24.1-40.6L1435-55l-2.1,1.3l0.7,1.2l25,42.1l2.1-1.3l0.6-0.3l0.5-0.3l1.1-0.6L1461.2-15.7z M1460.7-14.2v5h1.1v-5H1460.7z
	 M1487.5-55l-2.2-1.3l-24.1,40.6l-1.6,2.7l1.1,0.6l0.6,0.3l0.5,0.3l2.1,1.3l25-42.1l0.7-1.2L1487.5-55z M1457.8-1.8l-2.1,1.3h2.5
	v-0.7L1457.8-1.8z M1461.8-11.7l-0.5-0.3l-0.6,0.3l-2.1,1.3l0.7,1.2h3.9l0.7-1.2L1461.8-11.7z M1464.7-1.8l-0.4,0.6v0.7h2.5
	L1464.7-1.8z M1487.5-57.5v5h12.9v-5H1487.5z M1464.3-1.2v0.7h2.5l-2.1-1.3L1464.3-1.2z M1461.2-12l-0.6,0.3l-2.1,1.3l0.7,1.2h3.9
	l0.7-1.2l-2.1-1.3L1461.2-12z M1455.6-0.5h2.5v-0.7l-0.4-0.6L1455.6-0.5z M1500.4-55l-2.1-1.3l-2.3,3.8l-31.2,50.7l4.3,2.6l0.4-0.6
	l33.2-53.9L1500.4-55z M1464.3-0.5v38.2h5V-0.5H1464.3z M1455.6,35.3v5h11.2v-5H1455.6z M1453.1-0.5v38.2h5V-0.5H1453.1z
	 M1426.6-52.5l-2.3-3.8l-2.1,1.3l-2.1,1.3l33.2,53.9l0.4,0.6l4.3-2.6L1426.6-52.5z"/>
<path class="st0" d="M1131.3,190.9h-2.5v2.5h2.5V190.9z M1131.3,98.1v-2.5h-2.5v2.5H1131.3z M1142.5,98.1h2.5v-2.5h-2.5V98.1z
	 M1142.5,180.9h-2.5v2.5h2.5V180.9z M1185.6,180.9h2.5v-2.5h-2.5V180.9z M1185.6,190.9v2.5h2.5v-2.5H1185.6z M1133.8,190.9V98.1h-5
	v92.8H1133.8z M1131.3,100.6h11.2v-5h-11.2V100.6z M1140,98.1v82.8h5V98.1H1140z M1142.5,183.4h43.1v-5h-43.1V183.4z M1183.1,180.9
	v10h5v-10H1183.1z M1185.6,188.4h-54.4v5h54.4V188.4z M1272.4,169.9l-2.2-1.1l0,0L1272.4,169.9z M1257.8,186.4l1.3,2.1l0,0
	L1257.8,186.4z M1215.6,186.4l-1.3,2.1l0,0L1215.6,186.4z M1201.1,169.9l2.2-1.1l0,0L1201.1,169.9z M1257.8,102.6l1.3-2.1l0,0
	L1257.8,102.6z M1272.4,119.1l-2.2,1.1l0,0L1272.4,119.1z M1262.8,124.2l-2.3,1.1l0,0L1262.8,124.2z M1251.9,111.6l-1.3,2.1l0,0
	L1251.9,111.6z M1221.5,111.6l-1.3-2.1l0,0L1221.5,111.6z M1210.6,124.2l-2.2-1.1l0,0L1210.6,124.2z M1210.6,164.8l-2.3,1.1l0,0
	L1210.6,164.8z M1221.5,177.4l-1.3,2.1l0,0L1221.5,177.4z M1251.9,177.4l-1.3-2.1l0,0L1251.9,177.4z M1262.8,164.8l-2.2-1.1l0,0
	L1262.8,164.8z M1275.2,144.5c0,9.5-1.7,17.5-5,24.3l4.5,2.2c3.7-7.5,5.6-16.4,5.6-26.5H1275.2z M1270.1,168.8
	c-3.3,6.8-7.9,11.9-13.6,15.5l2.7,4.2c6.6-4.1,11.7-10,15.5-17.5L1270.1,168.8z M1256.5,184.2c-5.7,3.6-12.3,5.4-19.8,5.4v5
	c8.3,0,15.8-2,22.4-6.2L1256.5,184.2z M1236.7,189.7c-7.5,0-14.1-1.8-19.8-5.4l-2.7,4.2c6.6,4.1,14.1,6.2,22.4,6.2V189.7z
	 M1216.9,184.2c-5.7-3.6-10.3-8.7-13.6-15.5l-4.5,2.2c3.7,7.5,8.9,13.4,15.5,17.5L1216.9,184.2z M1203.3,168.8
	c-3.3-6.7-5-14.8-5-24.3h-5c0,10.1,1.8,18.9,5.6,26.5L1203.3,168.8z M1198.3,144.5c0-9.5,1.7-17.5,5-24.3l-4.5-2.2
	c-3.7,7.5-5.6,16.4-5.6,26.5H1198.3z M1203.3,120.2c3.3-6.8,7.9-11.9,13.6-15.5l-2.7-4.2c-6.6,4.1-11.7,10-15.5,17.5L1203.3,120.2z
	 M1216.9,104.8c5.7-3.6,12.3-5.4,19.8-5.4v-5c-8.3,0-15.8,2-22.4,6.2L1216.9,104.8z M1236.7,99.3c7.5,0,14.1,1.8,19.8,5.4l2.7-4.2
	c-6.6-4.1-14.1-6.2-22.4-6.2V99.3z M1256.5,104.8c5.7,3.6,10.3,8.7,13.6,15.5l4.5-2.2c-3.7-7.5-8.9-13.4-15.5-17.5L1256.5,104.8z
	 M1270.1,120.2c3.3,6.7,5,14.8,5,24.3h5c0-10.1-1.8-18.9-5.6-26.5L1270.1,120.2z M1269.3,144.5c0-8.3-1.4-15.5-4.3-21.4l-4.5,2.2
	c2.5,5.1,3.8,11.5,3.8,19.2H1269.3z M1265,123.1c-2.8-5.9-6.7-10.5-11.8-13.6l-2.6,4.2c4.1,2.6,7.4,6.3,9.9,11.5L1265,123.1z
	 M1253.3,109.5c-4.9-3.1-10.5-4.6-16.5-4.6v5c5.2,0,9.8,1.3,13.9,3.9L1253.3,109.5z M1236.7,104.9c-6.1,0-11.6,1.5-16.6,4.6l2.6,4.2
	c4.1-2.6,8.8-3.9,13.9-3.9V104.9z M1220.1,109.5c-5,3.1-8.9,7.7-11.7,13.6l4.5,2.2c2.5-5.2,5.8-9,9.9-11.5L1220.1,109.5z
	 M1208.4,123.1c-2.9,6-4.2,13.1-4.2,21.4h5c0-7.8,1.3-14.2,3.7-19.3L1208.4,123.1z M1204.1,144.5c0,8.3,1.4,15.5,4.2,21.4l4.5-2.2
	c-2.5-5.1-3.7-11.5-3.7-19.3H1204.1z M1208.4,165.9c2.9,5.9,6.8,10.4,11.7,13.6l2.7-4.2c-4.1-2.6-7.4-6.4-9.9-11.5L1208.4,165.9z
	 M1220.1,179.5c5,3.1,10.5,4.6,16.6,4.6v-5c-5.2,0-9.8-1.3-13.9-3.9L1220.1,179.5z M1236.7,184.1c6.1,0,11.6-1.5,16.5-4.6l-2.7-4.2
	c-4.1,2.6-8.7,3.9-13.9,3.9V184.1z M1253.3,179.5c5-3.1,8.9-7.7,11.8-13.6l-4.5-2.2c-2.5,5.2-5.8,9-9.9,11.5L1253.3,179.5z
	 M1265,165.9c2.9-6,4.3-13.1,4.3-21.4h-5c0,7.8-1.3,14.1-3.8,19.2L1265,165.9z M1369.5,169.9l-2.2-1.1l0,0L1369.5,169.9z
	 M1355,186.4l1.3,2.1l0,0L1355,186.4z M1312.8,186.4l-1.3,2.1l0,0L1312.8,186.4z M1298.2,169.9l2.2-1.1l0,0L1298.2,169.9z
	 M1355,102.6l1.3-2.1l0,0L1355,102.6z M1369.5,119.1l-2.2,1.1l0,0L1369.5,119.1z M1359.9,124.2l-2.3,1.1l0,0L1359.9,124.2z
	 M1349.1,111.6l-1.3,2.1l0,0L1349.1,111.6z M1318.6,111.6l-1.3-2.1l0,0L1318.6,111.6z M1307.8,124.2l-2.2-1.1l0,0L1307.8,124.2z
	 M1307.8,164.8l-2.3,1.1l0,0L1307.8,164.8z M1318.6,177.4l-1.3,2.1l0,0L1318.6,177.4z M1349.1,177.4l-1.3-2.1l0,0L1349.1,177.4z
	 M1359.9,164.8l-2.2-1.1l0,0L1359.9,164.8z M1372.3,144.5c0,9.5-1.7,17.5-5,24.3l4.5,2.2c3.7-7.5,5.6-16.4,5.6-26.5H1372.3z
	 M1367.3,168.8c-3.3,6.8-7.9,11.9-13.6,15.5l2.7,4.2c6.6-4.1,11.7-10,15.5-17.5L1367.3,168.8z M1353.7,184.2
	c-5.7,3.6-12.3,5.4-19.8,5.4v5c8.3,0,15.8-2,22.4-6.2L1353.7,184.2z M1333.9,189.7c-7.5,0-14.1-1.8-19.8-5.4l-2.7,4.2
	c6.6,4.1,14.1,6.2,22.4,6.2V189.7z M1314.1,184.2c-5.7-3.6-10.3-8.7-13.6-15.5l-4.5,2.2c3.7,7.5,8.9,13.4,15.5,17.5L1314.1,184.2z
	 M1300.5,168.8c-3.3-6.7-5-14.8-5-24.3h-5c0,10.1,1.8,18.9,5.6,26.5L1300.5,168.8z M1295.4,144.5c0-9.5,1.7-17.5,5-24.3l-4.5-2.2
	c-3.7,7.5-5.6,16.4-5.6,26.5H1295.4z M1300.5,120.2c3.3-6.8,7.9-11.9,13.6-15.5l-2.7-4.2c-6.6,4.1-11.7,10-15.5,17.5L1300.5,120.2z
	 M1314.1,104.8c5.7-3.6,12.3-5.4,19.8-5.4v-5c-8.3,0-15.8,2-22.4,6.2L1314.1,104.8z M1333.9,99.3c7.5,0,14.1,1.8,19.8,5.4l2.7-4.2
	c-6.6-4.1-14.1-6.2-22.4-6.2V99.3z M1353.7,104.8c5.7,3.6,10.3,8.7,13.6,15.5l4.5-2.2c-3.7-7.5-8.9-13.4-15.5-17.5L1353.7,104.8z
	 M1367.3,120.2c3.3,6.7,5,14.8,5,24.3h5c0-10.1-1.8-18.9-5.6-26.5L1367.3,120.2z M1366.5,144.5c0-8.3-1.4-15.5-4.3-21.4l-4.5,2.2
	c2.5,5.1,3.8,11.5,3.8,19.2H1366.5z M1362.2,123.1c-2.8-5.9-6.7-10.5-11.8-13.6l-2.6,4.2c4.1,2.6,7.4,6.3,9.9,11.5L1362.2,123.1z
	 M1350.4,109.5c-4.9-3.1-10.5-4.6-16.5-4.6v5c5.2,0,9.8,1.3,13.9,3.9L1350.4,109.5z M1333.9,104.9c-6.1,0-11.6,1.5-16.6,4.6l2.6,4.2
	c4.1-2.6,8.8-3.9,13.9-3.9V104.9z M1317.3,109.5c-5,3.1-8.9,7.7-11.7,13.6l4.5,2.2c2.5-5.2,5.8-9,9.9-11.5L1317.3,109.5z
	 M1305.5,123.1c-2.9,6-4.2,13.1-4.2,21.4h5c0-7.8,1.3-14.2,3.7-19.3L1305.5,123.1z M1301.3,144.5c0,8.3,1.4,15.5,4.2,21.4l4.5-2.2
	c-2.5-5.1-3.7-11.5-3.7-19.3H1301.3z M1305.5,165.9c2.9,5.9,6.8,10.4,11.7,13.6l2.7-4.2c-4.1-2.6-7.4-6.4-9.9-11.5L1305.5,165.9z
	 M1317.3,179.5c5,3.1,10.5,4.6,16.6,4.6v-5c-5.2,0-9.8-1.3-13.9-3.9L1317.3,179.5z M1333.9,184.1c6.1,0,11.6-1.5,16.5-4.6l-2.7-4.2
	c-4.1,2.6-8.7,3.9-13.9,3.9V184.1z M1350.4,179.5c5-3.1,8.9-7.7,11.8-13.6l-4.5-2.2c-2.5,5.2-5.8,9-9.9,11.5L1350.4,179.5z
	 M1362.2,165.9c2.9-6,4.3-13.1,4.3-21.4h-5c0,7.8-1.3,14.1-3.8,19.2L1362.2,165.9z M1393.7,190.9h-2.5v2.5h2.5V190.9z M1393.7,98.1
	v-2.5h-2.5v2.5H1393.7z M1405,98.1h2.5v-2.5h-2.5V98.1z M1405,144.1h-2.5v2.5h2.5V144.1z M1406,144.1v2.5h1.1l0.7-0.8L1406,144.1z
	 M1447.7,98.1v-2.5h-1.1l-0.7,0.8L1447.7,98.1z M1462.4,98.1l1.8,1.7l3.9-4.2h-5.7V98.1z M1423.4,140l-1.8-1.7l-1.4,1.5l1.3,1.7
	L1423.4,140z M1462.4,190.9v2.5h5.1l-3.1-4L1462.4,190.9z M1448.8,190.9l-2,1.5l0.8,1h1.3V190.9z M1416.5,147.8l2-1.5l-1.8-2.5
	l-2,2.3L1416.5,147.8z M1405,160.8l-1.9-1.7l-0.6,0.7v0.9H1405z M1405,190.9v2.5h2.5v-2.5H1405z M1396.2,190.9V98.1h-5v92.8H1396.2z
	 M1393.7,100.6h11.2v-5h-11.2V100.6z M1402.5,98.1v46h5v-46H1402.5z M1405,146.6h1.1v-5h-1.1V146.6z M1407.9,145.8l41.7-46l-3.7-3.4
	l-41.7,46L1407.9,145.8z M1447.7,100.6h14.7v-5h-14.7V100.6z M1460.6,96.4l-39,41.9l3.7,3.4l39-41.9L1460.6,96.4z M1421.4,141.5
	l39,50.9l4-3l-39-50.9L1421.4,141.5z M1462.4,188.4h-13.6v5h13.6V188.4z M1450.8,189.4l-32.3-43.1l-4,3l32.3,43.1L1450.8,189.4z
	 M1414.7,146.1l-11.6,13l3.7,3.3l11.6-13L1414.7,146.1z M1402.5,160.8v30.1h5v-30.1H1402.5z M1405,188.4h-11.2v5h11.2V188.4z"/>
<g>
	<path class="st1" d="M9.1,110.1c4.9,3,12,5.5,19.5,5.5c11.1,0,17.6-5.9,17.6-14.4c0-7.9-4.5-12.4-15.9-16.8
		c-13.8-4.9-22.2-12-22.2-23.9c0-13.1,10.9-22.9,27.2-22.9c8.6,0,14.9,2,18.6,4.1l-3,8.9c-2.8-1.5-8.4-4-16-4
		c-11.5,0-15.9,6.9-15.9,12.6c0,7.9,5.1,11.8,16.8,16.2c14.2,5.5,21.5,12.4,21.5,24.8c0,13-9.6,24.2-29.5,24.2
		c-8.1,0-17-2.4-21.5-5.4L9.1,110.1z"/>
	<path class="st1" d="M131.1,120.6c-4,2-12,4-22.2,4c-23.8,0-41.6-15-41.6-42.6c0-26.4,17.9-44.2,44-44.2c10.5,0,17.1,2.2,20,3.8
		l-2.6,8.9c-4.1-2-10-3.5-17-3.5c-19.8,0-32.9,12.6-32.9,34.8c0,20.6,11.9,33.9,32.4,33.9c6.6,0,13.4-1.4,17.8-3.5L131.1,120.6z"/>
	<path class="st1" d="M155.6,39.1v35.2h40.8V39.1h11v84.2h-11V83.9h-40.8v39.5h-10.9V39.1H155.6z"/>
	<path class="st1" d="M298.2,80.4c0,29-17.6,44.4-39.1,44.4c-22.2,0-37.9-17.2-37.9-42.8c0-26.8,16.6-44.2,39.1-44.2
		C283.3,37.7,298.2,55.4,298.2,80.4z M232.8,81.7c0,18,9.8,34.1,26.9,34.1c17.2,0,27-15.9,27-35c0-16.8-8.8-34.2-26.9-34.2
		C241.8,46.6,232.8,63.2,232.8,81.7z"/>
	<path class="st1" d="M384.3,80.4c0,29-17.6,44.4-39.1,44.4c-22.2,0-37.9-17.2-37.9-42.8c0-26.8,16.6-44.2,39.1-44.2
		C369.4,37.7,384.3,55.4,384.3,80.4z M318.9,81.7c0,18,9.8,34.1,26.9,34.1c17.2,0,27-15.9,27-35c0-16.8-8.8-34.2-26.9-34.2
		C327.9,46.6,318.9,63.2,318.9,81.7z"/>
	<path class="st1" d="M398.4,39.1h10.9v75.1h36v9.1h-46.9V39.1z"/>
	<path class="st1" d="M86.9,189.1h10.9v75.1h36v9.1H86.9V189.1z"/>
	<path class="st1" d="M213.1,230.4c0,29-17.6,44.4-39.1,44.4c-22.2,0-37.9-17.2-37.9-42.8c0-26.8,16.6-44.2,39.1-44.2
		C198.2,187.7,213.1,205.4,213.1,230.4z M147.7,231.7c0,18,9.8,34.1,26.9,34.1c17.2,0,27-15.9,27-35c0-16.8-8.8-34.2-26.9-34.2
		C156.7,196.6,147.7,213.2,147.7,231.7z"/>
	<path class="st1" d="M299.2,230.4c0,29-17.6,44.4-39.1,44.4c-22.2,0-37.9-17.2-37.9-42.8c0-26.8,16.6-44.2,39.1-44.2
		C284.3,187.7,299.2,205.4,299.2,230.4z M233.8,231.7c0,18,9.8,34.1,26.9,34.1c17.2,0,27-15.9,27-35c0-16.8-8.8-34.2-26.9-34.2
		C242.8,196.6,233.8,213.2,233.8,231.7z"/>
	<path class="st1" d="M313.3,189.1h10.9v40.6h0.4c2.2-3.2,4.5-6.2,6.6-9l25.8-31.6h13.5l-30.5,35.8l32.9,48.5h-12.9L332.2,232
		l-8,9.2v32.1h-10.9V189.1z"/>
</g>
</svg>
