<?xml version="1.0" encoding="utf-8"?>
<!-- Generator: Adobe Illustrator 27.9.0, SVG Export Plug-In . SVG Version: 6.00 Build 0)  -->
<svg version="1.1" id="Layer_1" xmlns="http://www.w3.org/2000/svg" xmlns:xlink="http://www.w3.org/1999/xlink" x="0px" y="0px"
	 width="150px" height="150px" viewBox="0 0 150 150" style="enable-background:new 0 0 150 150;" xml:space="preserve">
<style type="text/css">
	.st0{fill:#B90000;}
</style>
<g>
	<path class="st0" d="M104.1,28.9l-1.6,6.9l0.1,0.1l6-3.8l1.3,0.9l-4.9,6.9l-1-0.7l3.5-5l-0.1,0l-5.6,3.5l-0.8-0.6l1.5-6.4l-0.1,0
		l-3.5,5l-1-0.7l4.9-6.9L104.1,28.9z"/>
	<path class="st0" d="M105.8,40.7l8.3-3.6l1,1.1l-4.1,8.1l-0.9-1l1.1-2.1l-2.3-2.4l-2.2,1L105.8,40.7z M111.7,42.1l1.8-3.4l0,0
		l-3.5,1.6L111.7,42.1z"/>
	<path class="st0" d="M117.8,41.3l3.8,5.4l-0.9,0.6l-1.5-2.2l-6,4.2l-0.7-1.1l6-4.2l-1.5-2.2L117.8,41.3z"/>
	<path class="st0" d="M115.9,54.1l-0.6-1.1l7.5-4l0.6,1.1L115.9,54.1z"/>
	<path class="st0" d="M124.7,52.7l0.5,1.2l-6.8,2.7l1.4,3.6l-1,0.4l-1.9-4.7L124.7,52.7z"/>
	<path class="st0" d="M119.2,62l8.3-1.9l0.6,2.8c0.5,2.4-0.7,4.3-3.3,4.8c-2.6,0.6-4.5-0.5-5-3.1L119.2,62z M120.9,64.3
		c0.4,1.9,1.7,2.6,3.7,2.1c1.9-0.4,2.8-1.6,2.4-3.4l-0.3-1.4l-6.1,1.4L120.9,64.3z"/>
	<path class="st0" d="M120.8,69.2l8.6,2.6l0.1,1.5l-8.3,3.5l-0.1-1.4l2.2-0.9l-0.2-3.3l-2.3-0.7L120.8,69.2z M124.3,74.1l3.6-1.4
		l0-0.1l-3.7-1.1L124.3,74.1z"/>
	<path class="st0" d="M120.2,84.7l0.2-1.2l6.7-3.5l0-0.1l-6.2-0.8l0.2-1.3l8.4,1.1l-0.2,1.2l-6.7,3.5l0,0.1l6.2,0.8l-0.2,1.3
		L120.2,84.7z"/>
	<path class="st0" d="M127.6,89.9l-4.3,0.9l0,0.1l3,3.3l-0.4,1.4l-4-4.5l-3.2-1l0.4-1.2l3.2,1l5.8-1.4L127.6,89.9z"/>
	<path class="st0" d="M123,101.5l-0.7,1.1l-3.1-1.9l-2.2,3.6l3.1,1.9l-0.7,1.1l-7.2-4.5l0.7-1.1l3.1,2l2.2-3.6l-3.1-2l0.7-1.1
		L123,101.5z"/>
	<path class="st0" d="M111.5,103.8l4.2,8l-1,1.1l-8.3-3.4l0.9-1l2.2,0.9l2.2-2.4l-1.1-2.1L111.5,103.8z M110.5,109.8l3.5,1.5l0,0
		l-1.8-3.4L110.5,109.8z"/>
	<path class="st0" d="M110.7,116.9l-2.4,1.9c-1.5,1.2-3,0.9-4-0.4c-1-1.2-0.9-2.8,0.6-4l1.4-1.1l-1.8-2.3l1-0.8L110.7,116.9z
		 M105.7,115.2c-1,0.8-1,1.6-0.4,2.4c0.6,0.8,1.4,1,2.4,0.2l1.3-1l-2-2.6L105.7,115.2z"/>
	<path class="st0" d="M103.6,122.1l-2.6,1.5c-1.7,1-3.1,0.4-3.9-1c-0.8-1.4-0.5-2.9,1.2-3.8l1.5-0.8l-1.4-2.6l1.1-0.6L103.6,122.1z
		 M98.9,119.7c-1.1,0.6-1.2,1.5-0.7,2.3c0.5,0.8,1.3,1.2,2.3,0.6l1.4-0.8l-1.6-2.9L98.9,119.7z"/>
	<path class="st0" d="M94.9,126.5l-3.4-2.9l-0.1,0l-0.8,4.4l-1.4,0.5l1.2-5.9l-1.1-3.1l1.2-0.4l1.1,3.1l4.6,3.8L94.9,126.5z"/>
	<path class="st0" d="M79.2,129.1c1.5-0.1,2.4-1.3,2.3-3.4c-0.2-2.1-1.4-3.1-2.8-2.9c-1.1,0.1-1.9,0.8-2,1.9l-1.3,0.1
		c0.1-1.7,1.4-3,3.2-3.1c2.2-0.2,3.9,1.3,4.2,4c0.2,2.7-1.2,4.5-3.4,4.7c-1.8,0.2-3.3-0.8-3.7-2.6l1.3-0.1
		C77.2,128.6,78.1,129.1,79.2,129.1z"/>
	<path class="st0" d="M72.9,130.4l-1.3-0.1l0.5-7.4l-3.8-0.3l0.1-1.1l5.1,0.4L72.9,130.4z"/>
	<path class="st0" d="M63.8,120.5c2.2,0.5,3.4,2.5,2.7,5.1c-0.6,2.6-2.6,3.9-4.7,3.4c-2.1-0.5-3.3-2.5-2.7-5.1
		C59.7,121.2,61.7,120,63.8,120.5z M62.1,127.8c1.4,0.3,2.7-0.5,3.2-2.5s-0.3-3.3-1.8-3.7c-1.4-0.3-2.7,0.5-3.2,2.5
		S60.7,127.5,62.1,127.8z"/>
	<path class="st0" d="M56,127.2l-6-2.6l0.4-1l2.4,1l2.9-6.8l1.2,0.5l-2.9,6.8l2.4,1L56,127.2z"/>
	<path class="st0" d="M47.4,123.3l-1.1-0.7l2-3.1l-3.5-2.3l-2,3.1l-1.1-0.7l4.6-7.1l1.1,0.7l-2,3.1l3.5,2.3l2-3.1l1.1,0.7
		L47.4,123.3z"/>
	<path class="st0" d="M43.8,110.3l1,0.8l-5.5,6.5l-1-0.8L43.8,110.3z"/>
	<path class="st0" d="M37.7,104l0.8,0.9l-1.7,7.4l0,0.1l4.6-4.2l0.9,1l-6.3,5.7l-0.8-0.9l1.7-7.4l-0.1-0.1l-4.6,4.2l-0.9-0.9
		L37.7,104z"/>
	<path class="st0" d="M28.5,103.4c0.7,1.2,2.3,1.6,4,0.5c1.8-1.1,2.1-2.6,1.4-3.9c-0.7-1.2-1.9-1.5-3.1-0.8l1.1,1.8l-0.9,0.6
		l-1.7-2.9l0.8-0.5c1.8-1.1,3.8-0.6,4.8,1.2c1.2,2,0.6,4.2-1.7,5.6c-2.3,1.4-4.6,0.9-5.7-1c-1-1.6-0.7-3.4,0.5-4.5l0.7,1.1
		C28,101.4,27.9,102.4,28.5,103.4z"/>
	<path class="st0" d="M22.8,94.4l-0.4-1.2l3.5-1.1l-1.2-4l-3.5,1.1l-0.4-1.2l8.1-2.4l0.4,1.2l-3.5,1.1l1.2,4l3.5-1.1L31,92
		L22.8,94.4z"/>
	<path class="st0" d="M28.7,84.3L20,82.2l-0.2-1.5l8.1-4l0.1,1.4l-2.1,1l0.4,3.3l2.3,0.5L28.7,84.3z M24.9,79.6l-3.5,1.6l0,0.1
		l3.7,0.8L24.9,79.6z"/>
	<path class="st0" d="M19.5,75l0.2-3c0.1-2,1.3-2.9,2.9-2.8c1.6,0.1,2.7,1.1,2.6,3.1L25.1,74l3,0.2L28,75.5L19.5,75z M24,72.4
		c0.1-1.3-0.6-1.8-1.5-1.9c-1-0.1-1.7,0.4-1.7,1.7l-0.1,1.6L24,74L24,72.4z"/>
	<path class="st0" d="M20.2,66.2l0.7-3c0.4-1.9,1.8-2.6,3.3-2.3c1.5,0.3,2.5,1.5,2.1,3.5l-0.4,1.7l2.9,0.6L28.5,68L20.2,66.2z
		 M25.2,64.3c0.3-1.2-0.3-1.9-1.2-2.1c-0.9-0.2-1.7,0.1-2,1.4l-0.3,1.6l3.2,0.7L25.2,64.3z"/>
	<path class="st0" d="M22.7,56.8l4.4-0.6l0-0.1l-2.7-3.5l0.5-1.4l3.6,4.8l3.1,1.2l-0.5,1.2l-3.1-1.2l-5.9,0.9L22.7,56.8z"/>
	<path class="st0" d="M31.1,43.3c-0.9,1.2-0.6,2.7,1.1,3.9c1.7,1.2,3.2,1,4.1-0.2c0.6-0.9,0.7-1.9-0.1-2.8l0.8-1
		c1.2,1.2,1.3,3,0.2,4.5c-1.3,1.8-3.6,2.1-5.8,0.5c-2.2-1.6-2.6-3.9-1.3-5.7c1.1-1.4,2.7-2,4.4-1.1l-0.8,1.1
		C32.8,42.1,31.8,42.5,31.1,43.3z"/>
	<path class="st0" d="M34.4,37.6l0.9-0.9l2.5,2.7l3.1-2.9l-2.5-2.7l0.9-0.9l5.8,6.2L44.2,40l-2.5-2.7l-3.1,2.9l2.5,2.7l-0.9,0.9
		L34.4,37.6z"/>
	<path class="st0" d="M47.8,37.3l-1,0.8l-5-6.9l1-0.8L47.8,37.3z"/>
	<path class="st0" d="M45.3,28.7l1.1-0.6l3.6,6.4l3.3-1.9l0.6,1l-4.4,2.5L45.3,28.7z"/>
	<path class="st0" d="M55.2,32.9l-3-8l2.7-1c2.3-0.9,4.3,0.1,5.2,2.6c0.9,2.5,0.1,4.5-2.3,5.4L55.2,32.9z M57.3,30.9
		c1.8-0.7,2.3-2.1,1.6-3.9c-0.7-1.9-2-2.6-3.7-1.9l-1.4,0.5l2.2,5.8L57.3,30.9z"/>
	<path class="st0" d="M61.7,21.8l1.3-0.2l0.6,3.6l4.2-0.7l-0.6-3.6l1.3-0.2l1.5,8.4l-1.3,0.2l-0.6-3.6l-4.2,0.7l0.6,3.6l-1.3,0.2
		L61.7,21.8z"/>
	<path class="st0" d="M75.2,29c-2.2,0-3.8-1.7-3.8-4.4c0-2.7,1.7-4.3,3.9-4.3c2.2,0,3.8,1.7,3.8,4.4C79.1,27.4,77.4,29,75.2,29z
		 M75.3,21.4c-1.5,0-2.6,1.1-2.6,3.1s1,3.2,2.5,3.2c1.5,0,2.6-1.1,2.6-3.1S76.8,21.5,75.3,21.4z"/>
	<path class="st0" d="M84.1,29.9c-2.2-0.4-3.4-2.4-2.9-5c0.6-2.7,2.5-3.9,4.6-3.5c2.1,0.4,3.4,2.4,2.9,5
		C88.1,29.1,86.2,30.4,84.1,29.9z M85.6,22.6c-1.4-0.3-2.7,0.6-3.1,2.6s0.4,3.3,1.9,3.6c1.4,0.3,2.7-0.6,3.1-2.6S87,22.9,85.6,22.6z
		"/>
	<path class="st0" d="M89.3,31.1l3.2-7.8l2.6,1.1c2.3,1,3.1,3,2.1,5.4c-1,2.4-3,3.4-5.4,2.4L89.3,31.1z M92.2,31.1
		c1.8,0.7,3.1,0.1,3.9-1.8c0.8-1.8,0.3-3.2-1.4-3.9l-1.4-0.6l-2.4,5.8L92.2,31.1z"/>
</g>
</svg>
