<?xml version="1.0" encoding="utf-8"?>
<!-- Generator: Adobe Illustrator 27.9.0, SVG Export Plug-In . SVG Version: 6.00 Build 0)  -->
<svg version="1.1" id="Layer_3" xmlns="http://www.w3.org/2000/svg" xmlns:xlink="http://www.w3.org/1999/xlink" x="0px" y="0px"
	 width="100px" height="100px" viewBox="0 0 100 100" style="enable-background:new 0 0 100 100;" xml:space="preserve">
<style type="text/css">
	.st0{fill:#ECC25A;}
	.st1{fill:#859986;}
</style>
<g>
	<path class="st0" d="M44.5,33.3c0,0-7.3-16.2-12.1-20.7c-3.8-3.5-8.6-7-16.1-3.1c-4.5,2.4-7.7,6.7-8.9,11.7
		c-2.5,10.1,2.9,13,6,14.8c3.7,2.1,18.6,2,20.1,8S21.3,46.1,16,45.4C10.6,44.7-3,51.8,1.3,61.9c1.5,3.2,3,5.5,4.5,7.1
		c4.2,4.5,11.4,4.4,15.7-0.1c4.3-4.5,9.5-10.8,14.8-8.9c7.8,2.9,0.7,13.6,0.7,13.6s-13.5,16.6,1.2,23.5c9.1,4.3,18.3-0.6,21.1-5.4
		c1.7-2.9-0.2-8.7-1.5-11.8c-2.3-5.4-5.6-14.7-2.9-16.7c3.9-2.9,9.6,10.3,9.6,10.3s6.2,15.9,17.1,11.8S95.2,67.6,88.7,64
		c-6.4-3.6-24-4.5-23.6-9.1c0.4-4.6,11.5-1.2,11.5-1.2s20.4,4,22.7-9.8c0.5-3-0.3-6-2-8.5c-10.8-15-26.6,8.4-33.4,6.4
		c-7.3-2.1,1.7-11.7,1.7-11.7s16.5-16.2,4.3-25.9c-7.1-5.6-16.3-2.5-18.7,2.3c-1.3,2.6-2.4,6-2.2,8.9c0.4,6.3,2.2,18.3-0.5,20.4
		C46.6,37.2,44.5,33.3,44.5,33.3z"/>
	<circle class="st1" cx="49.1" cy="49.9" r="10.9"/>
</g>
</svg>
